<svg id="Слой_1" data-name="Слой 1" xmlns="http://www.w3.org/2000/svg" viewBox="0 0 598.65 449.48"><defs><style>.cls-1{fill:#fff;}.cls-2{fill:#129ad6;}.cls-3{fill:#e03339;}.cls-4{fill:#fcdd10;}.cls-5{fill:#89c94e;}</style></defs><path d="M367.29,441c-1.49,0-3,0-4.45,0s-3,0-4.45,0c-13.23-.06-25.66-.12-37-.2l-.24-.08-8.92-3L310,437a14,14,0,0,1-1.87-.79,15.51,15.51,0,0,1-3.31-2.35,15,15,0,0,1-4.08-6.75,13.19,13.19,0,0,1-.53-3.89l.1-4.65.16-18.79L300.32,381c-.16-6.27-.22-12.53-.5-18.79-.12-3.13-.2-6.27-.36-9.39l-.27-4.69a26.92,26.92,0,0,1,0-4.41,16.69,16.69,0,0,1,10.58-13.44,16.73,16.73,0,0,0-8.52,4.29,17.83,17.83,0,0,0-5,8.6,25.82,25.82,0,0,0-.56,5l-.24,4.69c-.18,3.12-.24,6.26-.38,9.39-.29,6.26-.35,12.52-.51,18.79l-.16,18.77.16,18.79.12,4.75a19,19,0,0,0,11.58,16.84c.53.22,1.07.42,1.62.59l-13.84-.07a26.78,26.78,0,0,1-6.69-17.74V346.45A26.85,26.85,0,0,1,301,323.1a26.34,26.34,0,0,1,6.1-2.54l19.23-5.31,13.74-3.81,10.72-3,4.49-1.23,4.57-1.27,4.07-1.13,1.89,25.91H355.25q-.44,5.07-.43,10.25v45.78A124.92,124.92,0,0,0,367.29,441Z" transform="translate(-179.88 -154.67)"/><path d="M371.28,405a44.74,44.74,0,0,1-4.13-18.84A44.27,44.27,0,0,1,369,373.53Z" transform="translate(-179.88 -154.67)"/><path d="M375.89,467.84l-4.53-1.25L307.11,448.8l-.08,0,55.29.28c1.51,0,3,0,4.55,0l4.55,0c1,0,2.05,0,3.1,0l.51,7,.76,10.23Z" transform="translate(-179.88 -154.67)"/><path d="M326.34,314.52l-3.17-32a5.23,5.23,0,0,0-4.73-4.68l-11.51-1a5.21,5.21,0,0,0-5.67,5c-.34,9.16-1,27.58-1.41,37.81a5.22,5.22,0,0,0,6.7,5.19l16.08-4.76A5.23,5.23,0,0,0,326.34,314.52Z" transform="translate(-179.88 -154.67)"/><path d="M315.79,310.76q2.58-30.56,5-61.13c1.1-14.37,5-28,12.5-40.39a89.37,89.37,0,0,1,69.68-42.62q3.13-.23,6.27-.22h98.06V154.67H409.21a101,101,0,0,0-74.51,33.15c-22.08,24.43-25,52.75-27.37,84.16-1,12.93-2.17,25.86-3.26,38.78Z" transform="translate(-179.88 -154.67)"/><path d="M591.26,386.16A44.74,44.74,0,0,1,587.13,405l2.32-31.47A44.63,44.63,0,0,1,591.26,386.16Z" transform="translate(-179.88 -154.67)"/><path d="M595.47,450.27c-1.49,0-3,0-4.53,0l-4.52,0h-2.61l-.43,5.9-.76,10.23-.1,1.48,4.53-1.25,58-16.06ZM657.4,323.1a26.38,26.38,0,0,0-6.08-2.54l-19.26-5.33-14-3.87-10.42-2.9-4.49-1.23L598.55,306l-4.07-1.13-1.89,25.91h10.57c.28,3.38.43,6.8.43,10.25v45.78a124.8,124.8,0,0,1-13.06,55.43l4.47,0c1.5,0,3,0,4.46,0l32.91.18,4.89-1.71,8.92-3,2.2-.74a14,14,0,0,0,1.87-.79,15.2,15.2,0,0,0,3.3-2.35,14.89,14.89,0,0,0,4.09-6.75,13.19,13.19,0,0,0,.53-3.89l-.1-4.65-.16-18.79.18-18.77c.16-6.27.22-12.53.5-18.79.12-3.13.2-6.27.38-9.39l.24-4.69a24,24,0,0,0,0-4.41,16.62,16.62,0,0,0-10.57-13.44,16.73,16.73,0,0,1,8.52,4.29,17.74,17.74,0,0,1,5,8.6,25.09,25.09,0,0,1,.57,5l.24,4.69c.18,3.12.26,6.26.38,9.39.28,6.26.35,12.52.51,18.79l.16,18.77-.16,18.79-.12,4.75a17.92,17.92,0,0,1-1,5.34,19,19,0,0,1-10.62,11.5,16.63,16.63,0,0,1-2.49.85c-.85.24-1.55.36-2.34.54l-4.25,1,19.48.08A26.93,26.93,0,0,0,671,422.92V346.45A26.85,26.85,0,0,0,657.4,323.1Z" transform="translate(-179.88 -154.67)"/><path d="M632.07,314.52l3.18-32a5.21,5.21,0,0,1,4.73-4.68l11.5-1a5.21,5.21,0,0,1,5.67,5c.35,9.16,1,27.58,1.41,37.81a5.21,5.21,0,0,1-6.7,5.19l-16.07-4.76A5.23,5.23,0,0,1,632.07,314.52Z" transform="translate(-179.88 -154.67)"/><path d="M642.62,310.76q-2.58-30.56-5-61.13c-1.11-14.37-5-28-12.5-40.39a89.4,89.4,0,0,0-69.69-42.62q-3.13-.23-6.27-.22H451.14V154.67H549.2a101.06,101.06,0,0,1,74.52,33.15c22.07,24.43,25,52.75,27.37,84.16,1,12.93,2.17,25.86,3.26,38.78Z" transform="translate(-179.88 -154.67)"/><path class="cls-1" d="M412.25,341.09A45.14,45.14,0,0,0,369,373.53a44.27,44.27,0,0,0-1.81,12.63,45.09,45.09,0,1,0,45.1-45.07Zm10,69.79a5.77,5.77,0,0,1-5.78,5.78H408a5.76,5.76,0,0,1-5.76-5.78V396.35H387.69a5.76,5.76,0,0,1-5.76-5.78v-8.48a5.76,5.76,0,0,1,5.76-5.76h14.55V361.79A5.76,5.76,0,0,1,408,356h8.48a5.77,5.77,0,0,1,5.78,5.76v14.54h14.52a5.77,5.77,0,0,1,5.78,5.76v8.48a5.76,5.76,0,0,1-5.78,5.78H422.26Z" transform="translate(-179.88 -154.67)"/><path class="cls-1" d="M495.05,386.16a51.24,51.24,0,0,0,1.61,12.77H461.75a51.17,51.17,0,0,0-32.18-60.86h99.29A51.19,51.19,0,0,0,495.05,386.16Z" transform="translate(-179.88 -154.67)"/><path class="cls-1" d="M547.37,338.07v0c-.4,0-.8,0-1.21,0Z" transform="translate(-179.88 -154.67)"/><path class="cls-1" d="M591.26,386.16a45.09,45.09,0,1,1-45.1-45.07c.41,0,.81,0,1.21,0a45.12,45.12,0,0,1,42.08,32.4A44.63,44.63,0,0,1,591.26,386.16Z" transform="translate(-179.88 -154.67)"/><path class="cls-1" d="M451.6,302.38a4.77,4.77,0,1,0,4.77,4.77A4.76,4.76,0,0,0,451.6,302.38Zm19.56,0a4.77,4.77,0,1,0,4.79,4.77A4.77,4.77,0,0,0,471.16,302.38Zm19.58,0a4.77,4.77,0,1,0,4.77,4.77A4.77,4.77,0,0,0,490.74,302.38Zm0,0a4.77,4.77,0,1,0,4.77,4.77A4.77,4.77,0,0,0,490.74,302.38Zm-19.58,0a4.77,4.77,0,1,0,4.79,4.77A4.77,4.77,0,0,0,471.16,302.38Zm-19.56,0a4.77,4.77,0,1,0,4.77,4.77A4.76,4.76,0,0,0,451.6,302.38Zm0,0a4.77,4.77,0,1,0,4.77,4.77A4.76,4.76,0,0,0,451.6,302.38Zm19.56,0a4.77,4.77,0,1,0,4.79,4.77A4.77,4.77,0,0,0,471.16,302.38Zm19.58,0a4.77,4.77,0,1,0,4.77,4.77A4.77,4.77,0,0,0,490.74,302.38ZM477.66,570.05,451,515.37v53.49a78.31,78.31,0,0,0,28.17,5.24h.43ZM586.42,450.23h-2.61c-66.43-.36-145.28-.76-209.29-1.09-1,0-2.07,0-3.1,0l-4.55,0,8.92,17.28,1.39,2.7h3.36l4.9,16,24,46.5A78.26,78.26,0,0,0,429.08,556v-87h22l37.08,76.08,37.08-76.08h21.95V534.9c.64-1.08,1.25-2.19,1.83-3.32l23.63-45.8V469.06h8.62l1.39-2.7,8.32-16.11ZM500,567.15l-2.3,4.73a77.68,77.68,0,0,0,27.54-12.69v-44Zm-9.22-264.77a4.77,4.77,0,1,0,4.77,4.77A4.77,4.77,0,0,0,490.74,302.38Zm-19.58,0a4.77,4.77,0,1,0,4.79,4.77A4.77,4.77,0,0,0,471.16,302.38Zm-19.56,0a4.77,4.77,0,1,0,4.77,4.77A4.76,4.76,0,0,0,451.6,302.38Zm0,0a4.77,4.77,0,1,0,4.77,4.77A4.76,4.76,0,0,0,451.6,302.38Zm19.56,0a4.77,4.77,0,1,0,4.79,4.77A4.77,4.77,0,0,0,471.16,302.38Zm19.58,0a4.77,4.77,0,1,0,4.77,4.77A4.77,4.77,0,0,0,490.74,302.38Zm0,0a4.77,4.77,0,1,0,4.77,4.77A4.77,4.77,0,0,0,490.74,302.38Zm-19.58,0a4.77,4.77,0,1,0,4.79,4.77A4.77,4.77,0,0,0,471.16,302.38Zm-19.56,0a4.77,4.77,0,1,0,4.77,4.77A4.76,4.76,0,0,0,451.6,302.38Zm0,0a4.77,4.77,0,1,0,4.77,4.77A4.76,4.76,0,0,0,451.6,302.38Zm19.56,0a4.77,4.77,0,1,0,4.79,4.77A4.77,4.77,0,0,0,471.16,302.38Zm19.58,0a4.77,4.77,0,1,0,4.77,4.77A4.77,4.77,0,0,0,490.74,302.38Zm0,0a4.77,4.77,0,1,0,4.77,4.77A4.77,4.77,0,0,0,490.74,302.38Zm-19.58,0a4.77,4.77,0,1,0,4.79,4.77A4.77,4.77,0,0,0,471.16,302.38Zm-19.56,0a4.77,4.77,0,1,0,4.77,4.77A4.76,4.76,0,0,0,451.6,302.38Zm0,0a4.77,4.77,0,1,0,4.77,4.77A4.76,4.76,0,0,0,451.6,302.38Zm19.56,0a4.77,4.77,0,1,0,4.79,4.77A4.77,4.77,0,0,0,471.16,302.38Zm19.58,0a4.77,4.77,0,1,0,4.77,4.77A4.77,4.77,0,0,0,490.74,302.38Zm0,0a4.77,4.77,0,1,0,4.77,4.77A4.77,4.77,0,0,0,490.74,302.38Zm-19.58,0a4.77,4.77,0,1,0,4.79,4.77A4.77,4.77,0,0,0,471.16,302.38Zm-19.56,0a4.77,4.77,0,1,0,4.77,4.77A4.76,4.76,0,0,0,451.6,302.38Zm0,0a4.77,4.77,0,1,0,4.77,4.77A4.76,4.76,0,0,0,451.6,302.38Zm19.56,0a4.77,4.77,0,1,0,4.79,4.77A4.77,4.77,0,0,0,471.16,302.38Zm19.58,0a4.77,4.77,0,1,0,4.77,4.77A4.77,4.77,0,0,0,490.74,302.38Zm0,0a4.77,4.77,0,1,0,4.77,4.77A4.77,4.77,0,0,0,490.74,302.38Zm-19.58,0a4.77,4.77,0,1,0,4.79,4.77A4.77,4.77,0,0,0,471.16,302.38Zm-19.56,0a4.77,4.77,0,1,0,4.77,4.77A4.76,4.76,0,0,0,451.6,302.38Zm0,0a4.77,4.77,0,1,0,4.77,4.77A4.76,4.76,0,0,0,451.6,302.38Zm19.56,0a4.77,4.77,0,1,0,4.79,4.77A4.77,4.77,0,0,0,471.16,302.38Zm19.58,0a4.77,4.77,0,1,0,4.77,4.77A4.77,4.77,0,0,0,490.74,302.38Zm0,0a4.77,4.77,0,1,0,4.77,4.77A4.77,4.77,0,0,0,490.74,302.38Zm-19.58,0a4.77,4.77,0,1,0,4.79,4.77A4.77,4.77,0,0,0,471.16,302.38Zm-19.56,0a4.77,4.77,0,1,0,4.77,4.77A4.76,4.76,0,0,0,451.6,302.38Zm155.59,28.36a124.66,124.66,0,0,0-4.07-23.51,128.44,128.44,0,0,0-247.83,0,124.66,124.66,0,0,0-4.07,23.51q-.42,5.07-.42,10.25v45.78a127.88,127.88,0,0,0,12,54.24c1.47,0,3,0,4.45,0a124.92,124.92,0,0,1-12.47-54.26V341q0-5.17.43-10.25H405.4v.16H560v-.16h43.2c.28,3.38.43,6.8.43,10.25v45.78a124.8,124.8,0,0,1-13.06,55.43l4.47,0a128.19,128.19,0,0,0,12.61-55.45V341Q607.61,335.82,607.19,330.74Zm-71.3-47.18H422.52v-13a13.94,13.94,0,0,1,14-13.95h85.45a13.94,13.94,0,0,1,14,13.95Zm-27.75,23.59a17.57,17.57,0,0,1-17.55,17.54H422.52V289.61h68.07A17.57,17.57,0,0,1,508.14,307.15Zm6,0a23.45,23.45,0,0,0-7.84-17.54h29.55v35.24H506.16A23.47,23.47,0,0,0,514.18,307.15Zm-23.44,4.77a4.77,4.77,0,1,0-4.78-4.77A4.77,4.77,0,0,0,490.74,311.92Zm-19.58,0a4.77,4.77,0,1,0-4.78-4.77A4.78,4.78,0,0,0,471.16,311.92Zm-19.56,0a4.77,4.77,0,1,0-4.77-4.77A4.76,4.76,0,0,0,451.6,311.92Zm0-9.54a4.77,4.77,0,1,0,4.77,4.77A4.76,4.76,0,0,0,451.6,302.38Zm19.56,0a4.77,4.77,0,1,0,4.79,4.77A4.77,4.77,0,0,0,471.16,302.38Zm19.58,0a4.77,4.77,0,1,0,4.77,4.77A4.77,4.77,0,0,0,490.74,302.38Zm0,0a4.77,4.77,0,1,0,4.77,4.77A4.77,4.77,0,0,0,490.74,302.38Zm-19.58,0a4.77,4.77,0,1,0,4.79,4.77A4.77,4.77,0,0,0,471.16,302.38Zm-19.56,0a4.77,4.77,0,1,0,4.77,4.77A4.76,4.76,0,0,0,451.6,302.38Zm0,0a4.77,4.77,0,1,0,4.77,4.77A4.76,4.76,0,0,0,451.6,302.38Zm19.56,0a4.77,4.77,0,1,0,4.79,4.77A4.77,4.77,0,0,0,471.16,302.38Zm19.58,0a4.77,4.77,0,1,0,4.77,4.77A4.77,4.77,0,0,0,490.74,302.38Zm0,0a4.77,4.77,0,1,0,4.77,4.77A4.77,4.77,0,0,0,490.74,302.38Zm-19.58,0a4.77,4.77,0,1,0,4.79,4.77A4.77,4.77,0,0,0,471.16,302.38Zm-19.56,0a4.77,4.77,0,1,0,4.77,4.77A4.76,4.76,0,0,0,451.6,302.38Zm0,0a4.77,4.77,0,1,0,4.77,4.77A4.76,4.76,0,0,0,451.6,302.38Zm19.56,0a4.77,4.77,0,1,0,4.79,4.77A4.77,4.77,0,0,0,471.16,302.38Zm19.58,0a4.77,4.77,0,1,0,4.77,4.77A4.77,4.77,0,0,0,490.74,302.38Zm0,0a4.77,4.77,0,1,0,4.77,4.77A4.77,4.77,0,0,0,490.74,302.38Zm-19.58,0a4.77,4.77,0,1,0,4.79,4.77A4.77,4.77,0,0,0,471.16,302.38Zm-19.56,0a4.77,4.77,0,1,0,4.77,4.77A4.76,4.76,0,0,0,451.6,302.38Zm0,0a4.77,4.77,0,1,0,4.77,4.77A4.76,4.76,0,0,0,451.6,302.38Zm19.56,0a4.77,4.77,0,1,0,4.79,4.77A4.77,4.77,0,0,0,471.16,302.38Zm19.58,0a4.77,4.77,0,1,0,4.77,4.77A4.77,4.77,0,0,0,490.74,302.38Zm0,0a4.77,4.77,0,1,0,4.77,4.77A4.77,4.77,0,0,0,490.74,302.38Zm-19.58,0a4.77,4.77,0,1,0,4.79,4.77A4.77,4.77,0,0,0,471.16,302.38Zm-19.56,0a4.77,4.77,0,1,0,4.77,4.77A4.76,4.76,0,0,0,451.6,302.38Zm0,0a4.77,4.77,0,1,0,4.77,4.77A4.76,4.76,0,0,0,451.6,302.38Zm19.56,0a4.77,4.77,0,1,0,4.79,4.77A4.77,4.77,0,0,0,471.16,302.38Zm19.58,0a4.77,4.77,0,1,0,4.77,4.77A4.77,4.77,0,0,0,490.74,302.38Zm0,0a4.77,4.77,0,1,0,4.77,4.77A4.77,4.77,0,0,0,490.74,302.38Zm-19.58,0a4.77,4.77,0,1,0,4.79,4.77A4.77,4.77,0,0,0,471.16,302.38Zm-19.56,0a4.77,4.77,0,1,0,4.77,4.77A4.76,4.76,0,0,0,451.6,302.38Zm0,0a4.77,4.77,0,1,0,4.77,4.77A4.76,4.76,0,0,0,451.6,302.38Zm19.56,0a4.77,4.77,0,1,0,4.79,4.77A4.77,4.77,0,0,0,471.16,302.38Zm19.58,0a4.77,4.77,0,1,0,4.77,4.77A4.77,4.77,0,0,0,490.74,302.38Zm0,0a4.77,4.77,0,1,0,4.77,4.77A4.77,4.77,0,0,0,490.74,302.38Zm-19.58,0a4.77,4.77,0,1,0,4.79,4.77A4.77,4.77,0,0,0,471.16,302.38Zm-19.56,0a4.77,4.77,0,1,0,4.77,4.77A4.76,4.76,0,0,0,451.6,302.38Zm0,0a4.77,4.77,0,1,0,4.77,4.77A4.76,4.76,0,0,0,451.6,302.38Zm19.56,0a4.77,4.77,0,1,0,4.79,4.77A4.77,4.77,0,0,0,471.16,302.38Zm19.58,0a4.77,4.77,0,1,0,4.77,4.77A4.77,4.77,0,0,0,490.74,302.38Zm0,0a4.77,4.77,0,1,0,4.77,4.77A4.77,4.77,0,0,0,490.74,302.38Zm-19.58,0a4.77,4.77,0,1,0,4.79,4.77A4.77,4.77,0,0,0,471.16,302.38Zm-19.56,0a4.77,4.77,0,1,0,4.77,4.77A4.76,4.76,0,0,0,451.6,302.38Z" transform="translate(-179.88 -154.67)"/><path d="M479.64,574.1l-2-4.05A74.3,74.3,0,0,1,451,564.57v8.64a82.14,82.14,0,0,0,28.17,4.92c.79,0,1.6,0,2.38,0Zm67.51-47.76v16.14a82.33,82.33,0,0,0,5.42-9.05l20-38.85V477Zm43.79-76.09-4.52,0-3,5.9-6.66,12.93h9.06l1.27-2.47,8.42-16.32C594,450.27,592.47,450.27,590.94,450.25Zm-91,116.9-2.3,4.73-2.27,4.66a82,82,0,0,0,29.81-12.35v-10A74.13,74.13,0,0,1,500,567.15ZM413,529.75l-38-73.62-3.61-7-4.55,0c-1.53,0-3,0-4.55,0l9,17.53,1.27,2.47h7.91l4.9,16L392,506.67l13.82,26.76a82.5,82.5,0,0,0,23.24,27.8V550.74A74.69,74.69,0,0,1,413,529.75Zm198.25-199a134.69,134.69,0,0,0-3.65-22.28c-14.54-57.36-66.6-99.92-128.4-99.92S365.34,251.1,350.8,308.46a133.65,133.65,0,0,0-3.65,22.28c-.24,3.38-.38,6.8-.38,10.25v45.78A132.9,132.9,0,0,0,358.39,441c1.47,0,2.94,0,4.45,0s3,0,4.45,0a124.92,124.92,0,0,1-12.47-54.26V341q0-5.17.43-10.25A122.16,122.16,0,0,1,359.86,306a124.38,124.38,0,0,1,238.69,0,122.16,122.16,0,0,1,4.61,24.78c.28,3.38.43,6.8.43,10.25v45.78a124.8,124.8,0,0,1-13.06,55.43l4.47,0c1.5,0,3,0,4.46,0a133,133,0,0,0,12.18-55.47V341C611.64,337.54,611.5,334.12,611.26,330.74Z" transform="translate(-179.88 -154.67)"/><path d="M618.89,330.74h-83V270.53a13.94,13.94,0,0,0-14-13.95H436.48a13.94,13.94,0,0,0-14,13.95v60.21h-83l.56-19.3,2-68.56a62.29,62.29,0,0,1,62.28-60.46H552.73A62.29,62.29,0,0,1,615,242L618,311.36Z" transform="translate(-179.88 -154.67)"/><path d="M405.4,283.56V330.9H560V283.56Zm6,41.29V289.61H553.92v35.24Z" transform="translate(-179.88 -154.67)"/><path d="M506.34,289.61a23.35,23.35,0,0,0-15.75-6.05H406.85c-.49,0-1,0-1.45.07a23.56,23.56,0,0,0,0,47c.48,0,1,.07,1.45.07h83.74a23.57,23.57,0,0,0,15.75-41.13Zm-15.75,35.08H406.85c-.49,0-1,0-1.45-.06a17.54,17.54,0,0,1,0-35c.48,0,1-.06,1.45-.06h83.74a17.54,17.54,0,1,1,0,35.08Z" transform="translate(-179.88 -154.67)"/><path d="M476,307.15a4.79,4.79,0,1,1-4.79-4.77A4.78,4.78,0,0,1,476,307.15Z" transform="translate(-179.88 -154.67)"/><path d="M495.51,307.15a4.78,4.78,0,1,1-4.77-4.77A4.77,4.77,0,0,1,495.51,307.15Z" transform="translate(-179.88 -154.67)"/><path d="M456.37,307.15a4.77,4.77,0,1,1-4.77-4.77A4.76,4.76,0,0,1,456.37,307.15Z" transform="translate(-179.88 -154.67)"/><path d="M457.32,386.16a44.56,44.56,0,0,1-1.85,12.77H422.26v-2.58h14.52a5.76,5.76,0,0,0,5.78-5.78v-8.48a5.77,5.77,0,0,0-5.78-5.76H422.26V361.79a5.77,5.77,0,0,0-5.78-5.76h-4.23V341.09A45.12,45.12,0,0,1,457.32,386.16Z" transform="translate(-179.88 -154.67)"/><path d="M495.05,386.16a51.24,51.24,0,0,0,1.61,12.77H461.75a51.17,51.17,0,0,0-32.18-60.86h99.29A51.19,51.19,0,0,0,495.05,386.16Z" transform="translate(-179.88 -154.67)"/><path d="M547.37,338.07v0c-.4,0-.8,0-1.21,0Z" transform="translate(-179.88 -154.67)"/><path d="M547.37,341.13v57.8H502.94a44.56,44.56,0,0,1-1.85-12.77,45.12,45.12,0,0,1,45.07-45.07C546.57,341.09,547,341.09,547.37,341.13Z" transform="translate(-179.88 -154.67)"/><path d="M591.26,386.16a45.09,45.09,0,1,1-45.1-45.07c.41,0,.81,0,1.21,0a45.12,45.12,0,0,1,42.08,32.4A44.63,44.63,0,0,1,591.26,386.16Z" transform="translate(-179.88 -154.67)"/><path class="cls-1" d="M546.16,338.07c.41,0,.81,0,1.21,0v0Z" transform="translate(-179.88 -154.67)"/><path class="cls-2" d="M536.42,386.34a12.59,12.59,0,1,1-12.59-12.59A12.59,12.59,0,0,1,536.42,386.34Z" transform="translate(-179.88 -154.67)"/><path class="cls-3" d="M581.1,386.34a12.59,12.59,0,1,1-12.59-12.59A12.59,12.59,0,0,1,581.1,386.34Z" transform="translate(-179.88 -154.67)"/><path class="cls-4" d="M560,364.84a12.59,12.59,0,1,1-12.58-12.59A12.59,12.59,0,0,1,560,364.84Z" transform="translate(-179.88 -154.67)"/><path class="cls-5" d="M560,407.49a12.59,12.59,0,1,1-12.58-12.59A12.59,12.59,0,0,1,560,407.49Z" transform="translate(-179.88 -154.67)"/><path d="M412.25,341.09A45.14,45.14,0,0,0,369,373.53a44.27,44.27,0,0,0-1.81,12.63,45.09,45.09,0,1,0,45.1-45.07Zm10,69.79a5.77,5.77,0,0,1-5.78,5.78H408a5.76,5.76,0,0,1-5.76-5.78V396.35H387.69a5.76,5.76,0,0,1-5.76-5.78v-8.48a5.76,5.76,0,0,1,5.76-5.76h14.55V361.79A5.76,5.76,0,0,1,408,356h8.48a5.77,5.77,0,0,1,5.78,5.76v14.54h14.52a5.77,5.77,0,0,1,5.78,5.76v8.48a5.76,5.76,0,0,1-5.78,5.78H422.26Z" transform="translate(-179.88 -154.67)"/><path d="M364.15,489.43l-17,56h34.36Zm0,0-17,56h34.36Zm0,0-17,56h34.36ZM500,567.15a74.13,74.13,0,0,0,25.24-12.93v-39ZM451,515.37v49.2a74.3,74.3,0,0,0,26.62,5.48Zm-86.89-25.94-17,56h34.36Zm0,0-17,56h34.36ZM500,567.15a74.13,74.13,0,0,0,25.24-12.93v-39ZM451,515.37v49.2a74.3,74.3,0,0,0,26.62,5.48Zm-86.89-25.94-17,56h34.36Zm0,0-17,56h34.36Zm370.15,6.2a19.53,19.53,0,0,0-5.82-4.45,14.39,14.39,0,0,0-6.59-1.75H691.34v35h30.55a15.1,15.1,0,0,0,7-1.89,17.83,17.83,0,0,0,6-5.1,16.48,16.48,0,0,0,3.51-9.87C738.43,502.7,737.06,498.71,734.3,495.63Zm0,0a19.53,19.53,0,0,0-5.82-4.45,14.39,14.39,0,0,0-6.59-1.75H691.34v35h30.55a15.1,15.1,0,0,0,7-1.89,17.83,17.83,0,0,0,6-5.1,16.48,16.48,0,0,0,3.51-9.87C738.43,502.7,737.06,498.71,734.3,495.63ZM500,567.15a74.13,74.13,0,0,0,25.24-12.93v-39ZM451,564.57a74.3,74.3,0,0,0,26.62,5.48L451,515.37Zm-86.89-75.14-17,56h34.36ZM762.32,546.2l1.79-2c1.15-1.31,2.27-2.72,3.32-4.17a61.19,61.19,0,0,0,7.92-14.84,51.1,51.1,0,0,0,3.18-17.61A57.07,57.07,0,0,0,755,461.47a54.51,54.51,0,0,0-16-8A57.77,57.77,0,0,0,722,450.94l-77-.41-49.59-.26c-1.49,0-3,0-4.53,0l-4.52,0h-2.61c-66.43-.36-145.28-.76-209.29-1.09-1,0-2.07,0-3.1,0l-4.55,0c-1.53,0-3,0-4.55,0L307,448.78c-30.82-.14-51-.24-53.31-.24a77.2,77.2,0,0,0-31,6.36,65.84,65.84,0,0,0-25.22,19c-11.32,13.79-17.26,31.32-17.64,52.06a4,4,0,0,0,0,.69c.38,21,6.28,38.47,17.52,51.92a63.57,63.57,0,0,0,25.28,19.3,78.32,78.32,0,0,0,31,6.24c11.34,0,501.71-2.36,506.66-2.38a18.14,18.14,0,0,0,16.32-26.08ZM309.24,526.34q-.45,25.47-13.35,40.91a46.88,46.88,0,0,1-18.39,14,61.88,61.88,0,0,1-47.65,0,45.38,45.38,0,0,1-18.31-14q-13-15.43-13.51-40.91.45-25,13.51-40.88A47.76,47.76,0,0,1,230,471.52a58.92,58.92,0,0,1,23.71-4.85,57.83,57.83,0,0,1,23.78,4.93,49.76,49.76,0,0,1,18.39,13.86,45.06,45.06,0,0,1,5.08,7.79l-19.88,9.07-2.4-3.83A27.83,27.83,0,0,0,268,490.07a32.27,32.27,0,0,0-13.7-3,37.2,37.2,0,0,0-14.7,2.86,26.46,26.46,0,0,0-11.06,8.58q-7.34,9.88-7.65,27.85.33,18,7.65,27.86a26.66,26.66,0,0,0,10.65,8.52,33.52,33.52,0,0,0,13.84,2.94,36.94,36.94,0,0,0,14.56-2.88,26.24,26.24,0,0,0,11.06-8.58c2.76-3.61,4.9-8.44,6.37-14.48H258.49V522.54h50.75Zm84,57.31-5.56-17.83H340.93l-5.42,17.83H313.23l35-114.59h32.3l4.9,16L392,506.67l23.53,77Zm153.88,0H525.2V515.21L500,567.15l-2.3,4.73-2.27,4.66-3.45,7.11h-7.65l-2.7-5.56-1.95-4-2-4.05L451,515.37v68.28h-22V469.06h22l37.08,76.08,37.08-76.08h21.95Zm100.26-93H594.26v24.84h43.61v21.63H594.26V562h53.15v21.66h-74.8V469.06h74.8Zm113,93H735.89l-18.93-39H691.34v39H669.69V469.06H722a39.48,39.48,0,0,1,11.63,1.76,36.25,36.25,0,0,1,10.67,5.31,39.1,39.1,0,0,1,14.08,19.26,38.18,38.18,0,0,1,2,12.18A33.12,33.12,0,0,1,758.33,519a42.12,42.12,0,0,1-5.58,10.42A33.74,33.74,0,0,1,739.4,540.5Zm-31.92-92.47a14.39,14.39,0,0,0-6.59-1.75H691.34v35h30.55a15.1,15.1,0,0,0,7-1.89,17.83,17.83,0,0,0,6-5.1,16.48,16.48,0,0,0,3.51-9.87c0-4.87-1.37-8.86-4.13-11.94A19.53,19.53,0,0,0,728.48,491.18ZM347.13,545.44h34.36l-17.34-56Zm17-56-17,56h34.36ZM451,515.37v49.2a74.3,74.3,0,0,0,26.62,5.48ZM500,567.15a74.13,74.13,0,0,0,25.24-12.93v-39ZM734.3,495.63a19.53,19.53,0,0,0-5.82-4.45,14.39,14.39,0,0,0-6.59-1.75H691.34v35h30.55a15.1,15.1,0,0,0,7-1.89,17.83,17.83,0,0,0,6-5.1,16.48,16.48,0,0,0,3.51-9.87C738.43,502.7,737.06,498.71,734.3,495.63Zm0,0a19.53,19.53,0,0,0-5.82-4.45,14.39,14.39,0,0,0-6.59-1.75H691.34v35h30.55a15.1,15.1,0,0,0,7-1.89,17.83,17.83,0,0,0,6-5.1,16.48,16.48,0,0,0,3.51-9.87C738.43,502.7,737.06,498.71,734.3,495.63Zm-370.15-6.2-17,56h34.36Zm0,0-17,56h34.36ZM451,515.37v49.2a74.3,74.3,0,0,0,26.62,5.48ZM500,567.15a74.13,74.13,0,0,0,25.24-12.93v-39ZM364.15,489.43l-17,56h34.36Zm0,0-17,56h34.36ZM451,515.37v49.2a74.3,74.3,0,0,0,26.62,5.48ZM500,567.15a74.13,74.13,0,0,0,25.24-12.93v-39ZM364.15,489.43l-17,56h34.36Z" transform="translate(-179.88 -154.67)"/></svg>