<svg id="Object" xmlns="http://www.w3.org/2000/svg" viewBox="0 0 660 628.74"><defs><style>.cls-1{fill:#f3cc30;}.cls-2{fill:#f7db5e;}.cls-3{fill:#edbd31;}</style></defs><path class="cls-1" d="M570.5,252.54l93.77,190a10.58,10.58,0,0,0,8,5.79L881.92,478.8a10.59,10.59,0,0,1,5.87,18.06L736.07,644.76a10.57,10.57,0,0,0-3.05,9.37L768.84,863a10.6,10.6,0,0,1-15.37,11.17l-187.54-98.6a10.61,10.61,0,0,0-9.86,0l-187.54,98.6A10.6,10.6,0,0,1,353.16,863L389,654.13a10.57,10.57,0,0,0-3.05-9.37L234.21,496.86a10.59,10.59,0,0,1,5.87-18.06l209.68-30.47a10.58,10.58,0,0,0,8-5.79l93.77-190A10.59,10.59,0,0,1,570.5,252.54Z" transform="translate(-231 -246.63)"/><path class="cls-2" d="M561,296.42,477.44,458.28a28,28,0,0,1-22.32,15L273.69,489.87l191.69,9a28,28,0,0,0,27.54-18.24Z" transform="translate(-231 -246.63)"/><path class="cls-3" d="M357.28,838.93l-4.12,24a10.6,10.6,0,0,0,15.37,11.17l187.54-98.6a10.61,10.61,0,0,1,9.86,0l187.54,98.6A10.6,10.6,0,0,0,768.84,863L733,654.13a10.57,10.57,0,0,1,3.05-9.37l151.72-147.9a10.59,10.59,0,0,0-5.87-18.06l-70.23-10.21C698.1,672.45,524.16,779.77,357.28,838.93Z" transform="translate(-231 -246.63)"/></svg>