<svg xmlns="http://www.w3.org/2000/svg" xmlns:xlink="http://www.w3.org/1999/xlink" viewBox="0 0 196.33 178.81"><defs><style>.cls-1{isolation:isolate;}.cls-2,.cls-3,.cls-4{mix-blend-mode:screen;}.cls-3{fill:url(#linear-gradient);}.cls-4{fill:url(#linear-gradient-2);}.cls-12,.cls-13,.cls-5{fill:#fff;}.cls-12,.cls-14,.cls-5{mix-blend-mode:soft-light;}.cls-6{fill:#b30053;opacity:0.3;}.cls-11,.cls-15,.cls-17,.cls-6,.cls-7{mix-blend-mode:multiply;}.cls-7{fill:#da0553;opacity:0.2;}.cls-8{fill:url(#linear-gradient-3);}.cls-9{fill:url(#linear-gradient-4);}.cls-10{fill:#c9f3ff;}.cls-11,.cls-15{fill:#d42f55;}.cls-11,.cls-12,.cls-17{opacity:0.5;}.cls-14{fill:#e1deff;}.cls-15{opacity:0.8;}.cls-16{fill:#006edc;}.cls-17{fill:#2f3dd4;}</style><linearGradient id="linear-gradient" x1="216.77" y1="240.46" x2="155.16" y2="71.17" gradientUnits="userSpaceOnUse"><stop offset="0"/><stop offset="0.23" stop-color="#006efe"/><stop offset="0.66" stop-color="#00d5fa"/><stop offset="0.85" stop-color="#0098f6"/><stop offset="1"/></linearGradient><linearGradient id="linear-gradient-2" x1="191.07" y1="241.33" x2="128.88" y2="70.46" gradientUnits="userSpaceOnUse"><stop offset="0" stop-color="#34e1ff"/><stop offset="0.63" stop-color="#0062ff"/><stop offset="0.7" stop-color="#09f"/><stop offset="1" stop-color="#00eaff"/></linearGradient><linearGradient id="linear-gradient-3" x1="183.54" y1="224.21" x2="136.48" y2="94.9" gradientUnits="userSpaceOnUse"><stop offset="0" stop-color="#00aeff"/><stop offset="0.21" stop-color="#0050fe"/><stop offset="1" stop-color="#0004d4"/></linearGradient><linearGradient id="linear-gradient-4" x1="185.5" y1="221.37" x2="141.35" y2="100.05" gradientUnits="userSpaceOnUse"><stop offset="0.04" stop-color="#03f"/><stop offset="1" stop-color="#00a9e1"/></linearGradient></defs><g class="cls-1"><g id="Layer_1" data-name="Layer 1"><g class="cls-2"><path class="cls-3" d="M226.49,183.55s9.71,46.07-1.06,53.53a6.14,6.14,0,0,1-1.44.75l-.08,0a10,10,0,0,1-3.62.6h0c-4.35,0-10-1.9-15.67-4.5-12.67-5.79-25.89-15.18-25.89-15.18s-3.52,2.47-8.71,5.65l-3.2,1.93-.08,0a1.35,1.35,0,0,1-.2.11c-8.26,4.86-19,10.41-26.87,11.67l-.1,0a14.68,14.68,0,0,1-2.31.21,2.5,2.5,0,0,1-.47,0,11.2,11.2,0,0,1-3.75-.56,7.19,7.19,0,0,1-1.56-.81A8.15,8.15,0,0,1,129,234c-4.31-8.78-1.19-29.8,1.11-41.86,1-5.12,1.79-8.56,1.79-8.56s-18-14.35-29-28.31c-5.37-6.82-9-13.54-8-18.37,1.68-7.86,16.11-12.08,29.62-14.33a197.42,197.42,0,0,1,23.31-2.4c.64-.06,1-.06,1-.06S156.67,93,166.78,75.65c4.42-7.55,9.2-13.14,13.68-13.42a1.5,1.5,0,0,1,.37,0,5.46,5.46,0,0,1,1.83.31c14.57,4.48,28.65,57.57,28.65,57.57s50.63,1.55,53.49,16.79C267.54,151.61,226.49,183.55,226.49,183.55Z" transform="translate(-68.59 -60.59)"/><path class="cls-4" d="M201.68,183.55s9,37.86,2.89,50.4a7.64,7.64,0,0,1-2.48,3.13,8.43,8.43,0,0,1-4.72,1.35c-8,.23-21.05-6.44-30.6-12.08-1.78-1-3.45-2.07-4.92-3-4.23-2.64-7-4.57-7-4.57S141.59,228.16,129,234a58.66,58.66,0,0,1-10.71,3.82,17.22,17.22,0,0,1-7.68.36l-.19,0a7.1,7.1,0,0,1-2.28-1c-10.52-7.28-1.46-51.39-1-53.46a.23.23,0,0,0,0-.07S66,151.61,68.72,136.87v0c2.92-15.21,53.49-16.76,53.49-16.76S137.55,62.2,152.69,62.2c4.63,0,9.54,5.68,14.09,13.45,10.07,17.3,18,44.43,18,44.43s6.39.2,14.77,1.16c9.57,1.05,21.69,3.08,29.94,6.87,4.91,2.25,8.44,5.11,9.21,8.76,2.13,9.93-15.63,27.85-27.22,38.27C205.91,180.18,201.68,183.55,201.68,183.55Z" transform="translate(-68.59 -60.59)"/><path class="cls-5" d="M184.79,120.08s20.65-.6,29.43.13c34.2,2.87,43.36,8.56,46,12.53s-19.33.38-20.89.32-2.59-5.62-21-8S184.79,120.08,184.79,120.08Z" transform="translate(-68.59 -60.59)"/><path class="cls-6" d="M226.48,183.54c-4.73,1.44-18.86.23-20.92,0s27.08-25.8,32.68-36.07c5.73-10.5,22.54-9.32,25.08-7.47s-10.75,19.61-19.61,28.59A151.33,151.33,0,0,1,226.48,183.54Z" transform="translate(-68.59 -60.59)"/><path class="cls-5" d="M221.27,142.68a132.7,132.7,0,0,1-15.6,5.37c-17.61,5-39.83,8.27-61.13,9.17-14.9.61-29.42.05-41.72-2C89.06,153,78,149,72.19,142.68a19.18,19.18,0,0,1-3.47-5.84c.49-2.51,2.3-4.69,5-6.53,0,0,0,0,.05,0,.52-.35,1.1-.7,1.7-1.05.09-.06.17-.08.28-.14,14.68-8,46.44-9,46.44-9S137.55,62.2,152.69,62.2a7.33,7.33,0,0,1,3.93,1.27c3.43,2.07,6.89,6.59,10.16,12.18,10.07,17.3,18,44.43,18,44.43s6.39.2,14.77,1.16c9.57,1.05,21.69,3.08,29.94,6.87C230.79,134.46,228.58,139.56,221.27,142.68Z" transform="translate(-68.59 -60.59)"/><path class="cls-7" d="M75.81,149c-5.87,2.52,9.19,16.15,21.85,23.71C110.1,180.1,208.23,158,217.22,160s23.36-14.3,20.78-21.23-6.91-7.74-6.91-6.55-5.38,11.44-17.28,14.42S109.9,156.53,99.34,157.44,76.73,148.56,75.81,149Z" transform="translate(-68.59 -60.59)"/><path class="cls-5" d="M110.67,236.3c-8.92-2-7.77-26.2-2.16-32.86s76-6.16,89.49-2,7.55,32,2.85,34.9-43.77-20.63-46.93-19.92S128,240.21,110.67,236.3Z" transform="translate(-68.59 -60.59)"/><path class="cls-8" d="M189.48,173.45,184,177.94l1.61,6.35c3.47,13.46,5.31,27.45,5,35.23,0,.8-.07,1.51-.16,2.18-6.49-2.18-18.16-8.54-27.91-15.46l-5.09-3.64-2.84-2-7.76,5.65a147.2,147.2,0,0,1-22.23,13.28,49.4,49.4,0,0,1-5.25,2.18c-1-7.13.45-22.6,3.82-37.41l1.46-6.35L119,173.45c-13.49-10.75-26.79-24.75-29.54-31,5.16-3,21.67-6.09,36.46-6.59l9.56-.29L137.9,127c4.13-14.61,10.36-30,15.16-38.14,1,1.64,2.1,3.58,3.23,5.75a215.47,215.47,0,0,1,13,32.39l2.69,8.6,9.59.3c14.77.47,31.4,3.52,36.62,6.56C215.62,148.7,202.7,162.7,189.48,173.45Z" transform="translate(-68.59 -60.59)"/><path class="cls-9" d="M218.19,142.47c-2.36,5.71-13.4,17.93-25.39,28.2-1.08.94-2.22,1.86-3.32,2.77l-5.52,4.5,1.61,6.36c3.47,13.46,5.3,27.45,5,35.22a152.66,152.66,0,0,1-22.49-13.28l-7.9-5.64h-5.59l-7.76,5.64a148,148,0,0,1-22.23,13.28c0-1-.08-2.07-.08-3.23,0-1.35,0-2.82.16-4.38A160.71,160.71,0,0,1,128,188.49c.27-1.41.59-2.8.92-4.19l1.47-6.36-5.64-4.5c-13.45-10.73-26.65-24.74-29.34-31,5.15-3.05,21.72-6.08,36.5-6.59l9.58-.29,2.48-8.59A208.91,208.91,0,0,1,156.3,94.61a217.43,217.43,0,0,1,13,32.39l2.69,8.61,9.58.3C196.34,136.39,213,139.42,218.19,142.47Z" transform="translate(-68.59 -60.59)"/><path class="cls-10" d="M154.59,200.59s5.37-.17,7.48,1.35,15.82,10.81,15.78,12.34S163.41,207,154.59,200.59Z" transform="translate(-68.59 -60.59)"/><path class="cls-5" d="M119.35,221.7c-2-.74,2.11-13.54,3.57-14.62s1.08,11.63,1.68,12.44C124.6,219.52,121,221.82,119.35,221.7Z" transform="translate(-68.59 -60.59)"/><path class="cls-11" d="M124.63,177.94h5.73s-5.86,17.11-6.73,21.7S120,194.76,124.63,177.94Z" transform="translate(-68.59 -60.59)"/><path class="cls-11" d="M92.81,147.79c-3.61-6.46,49.37-4.12,49.37-4.12S153,108.44,161,104.61c0,0-6.71-15.69-7.91-15.74s-17.63,46.72-17.63,46.72-23.55-.88-46,6.88Z" transform="translate(-68.59 -60.59)"/><path class="cls-11" d="M172,135.61s39.83,6.88,43.55,10.53l2.66-3.67S205.93,136.45,172,135.61Z" transform="translate(-68.59 -60.59)"/><path class="cls-6" d="M166.67,66.56c-7.52,0,3.38,13,8.68,25.09,5.18,11.83,29.89,12,29.89,12s-10.52-30.58-17.08-34.25S166.67,66.56,166.67,66.56Z" transform="translate(-68.59 -60.59)"/><path class="cls-6" d="M201.84,239.13c-1.56-1.17,3.3-.4,5.33-8.95,2.07-8.73,20.51-7.75,22.3-6.78s-1.13,11.78-4,13.69S201.84,239.13,201.84,239.13Z" transform="translate(-68.59 -60.59)"/><path class="cls-5" d="M208.93,222.78c-2.06-.71-1.88-20.69-1.79-24.45s20.11-2.22,21.12,0,1.89,22,.75,23.37S210.27,223.25,208.93,222.78Z" transform="translate(-68.59 -60.59)"/><path class="cls-12" d="M143,236.76c4.58-.82,14.39-5.21,14.73-6.55s-10.84-2.51-13.38-2.79-17.76,8.64-18.89,9.34S143,236.76,143,236.76Z" transform="translate(-68.59 -60.59)"/><path class="cls-11" d="M155.05,219.52c-2.13.73-9.74,5.49-10,6.73s11.67,2.69,13.23,3,8.39-2.82,8.39-2.82S155.49,219.37,155.05,219.52Z" transform="translate(-68.59 -60.59)"/><path class="cls-11" d="M240.88,145.08c-1.36,1.51-8.87,10.56-8.76,12.87s21.18-.32,22.49-2,10.74-14.48,8.71-15.9S244.84,140.68,240.88,145.08Z" transform="translate(-68.59 -60.59)"/><path class="cls-10" d="M184.79,120.08s43.63,4.23,49.5,12.9c8.93,13.16-19.42,39.08-19.42,39.08s28.25-25.1,24.34-37.47C235.2,121.9,184.79,120.08,184.79,120.08Z" transform="translate(-68.59 -60.59)"/><path class="cls-13" d="M235.18,129.92c-3.33-1.54,1.78,6.63,1,12.6s3.45-1.69,3.39-5.72S235.18,129.92,235.18,129.92Z" transform="translate(-68.59 -60.59)"/><path class="cls-5" d="M159.47,65.75C150.81,62.52,156,93,165.14,115c8.72,21,17.45,12.66,19.25,7.22S166.65,71.14,159.47,65.75Z" transform="translate(-68.59 -60.59)"/><path class="cls-13" d="M168.43,85.42c-6.29-.8-2.66,18.32,1.23,25s9.38,2.27,9.52-3.56S170.8,85.72,168.43,85.42Z" transform="translate(-68.59 -60.59)"/><path class="cls-5" d="M158.33,62.75c-2.81.86,7.93,2.86,16.16,3.82s10.25,1.06,10.19-1S173.57,58.13,158.33,62.75Z" transform="translate(-68.59 -60.59)"/><path class="cls-14" d="M201.72,238.45c-.74-.74,20.91-3.57,23.09-3.16S222,238,222,238,207.63,240.38,201.72,238.45Z" transform="translate(-68.59 -60.59)"/><path class="cls-12" d="M185.57,184.3c3.47,13.46,5.3,27.45,5,35.22a152.66,152.66,0,0,1-22.49-13.28l-7.9-5.64h-5.59l-7.76,5.64a148,148,0,0,1-22.23,13.28c0-1-.08-2.07-.08-3.23l1.9-1.83c-.75-.13-1.35-1.05-1.74-2.55-1.25-4.41-.78-14,3.29-23.42a39.33,39.33,0,0,1,16.48-19c23-13.08,48.35,1.14,48.35,1.14-1.08.94-2.22,1.86-3.32,2.77l-5.52,4.5Z" transform="translate(-68.59 -60.59)"/><path class="cls-13" d="M105.47,230.47c-.84-5.67,1.33-9.51,3.34-9.3s4.67,13,2.8,14.56S105.68,232,105.47,230.47Z" transform="translate(-68.59 -60.59)"/><path class="cls-15" d="M166.49,226.5c-8.26,4.86-19,10.41-26.87,11.67l-.1,0a14.68,14.68,0,0,1-2.31.21,2.5,2.5,0,0,1-.47,0c-6,.55-19.89,1.55-26.18-.3l-.19,0a7.1,7.1,0,0,1-2.28-1c-10.52-7.28-1.46-51.39-1-53.46-.26,2-5.26,39.58-.84,48.65a7.15,7.15,0,0,0,3.08,3,24,24,0,0,0,9,2.49,78.9,78.9,0,0,0,14.75.1c3.18-.25,6.16-.62,8.57-1a37.39,37.39,0,0,0,5-1.09C152.22,234,164.74,227.42,166.49,226.5Z" transform="translate(-68.59 -60.59)"/><path class="cls-15" d="M182.66,62.51s-.59-.09-1.68-.22c-.15,0-.34,0-.52-.06-4.45-.46-14.84-1.15-23.84,1.24a27.85,27.85,0,0,0-4.14,1.36,7.77,7.77,0,0,0-1.57.68c-21.59,14-26.48,57-26.48,57s-38.84,2.68-48.66,6.55c14.68-8,46.44-9,46.44-9S137.55,62.2,152.69,62.2c0,0,17.05-3.61,28.14,0A5.46,5.46,0,0,1,182.66,62.51Z" transform="translate(-68.59 -60.59)"/><path class="cls-16" d="M228,160c-.06-5.46-12.82,5.25-13.72,7.39s-1.57,4.95-1,5.89S226.74,171.32,228,160Z" transform="translate(-68.59 -60.59)"/><path class="cls-17" d="M226.87,158.85c-3.53-.37-7.72,3.33-8.12,7.18s3.48,3.76,6.8,0S227.83,159,226.87,158.85Z" transform="translate(-68.59 -60.59)"/><path class="cls-10" d="M214.42,167.07s-.17,3.13,1,3.91c1.87,1.29,6-.35,6-.35s-4.75,3.33-8.17,3.6S214.42,167.07,214.42,167.07Z" transform="translate(-68.59 -60.59)"/><path class="cls-13" d="M212.26,173.91c-1.08-1.39,5.56-1.49,6.13-1.64S213.43,175.26,212.26,173.91Z" transform="translate(-68.59 -60.59)"/><path class="cls-16" d="M134.05,231.58c-.84-.14.89-3.81,2.95-4.49s4.93-.6,4.81.77S138.19,232.26,134.05,231.58Z" transform="translate(-68.59 -60.59)"/><path class="cls-10" d="M135.62,228c-1.57,3.59.87,3.3,3.27,2.8a15.52,15.52,0,0,1-6.32,1.48A7.53,7.53,0,0,1,135.62,228Z" transform="translate(-68.59 -60.59)"/><path class="cls-13" d="M132.9,232.2c-.25-.27,1.32-1.27,2.29-1.3a3.27,3.27,0,0,1,2,.54A7.71,7.71,0,0,1,132.9,232.2Z" transform="translate(-68.59 -60.59)"/><path class="cls-17" d="M138.4,226.77c-3.22,1.57-2.24,4,.32,3.74s3.41-2.79,2.82-3.33S138.4,226.77,138.4,226.77Z" transform="translate(-68.59 -60.59)"/><path class="cls-5" d="M112.89,163.13c-7-3.49,4,8.68,7,11.1l4.7,3.71h5.73S115.61,164.34,112.89,163.13Z" transform="translate(-68.59 -60.59)"/><path class="cls-13" d="M124.63,177.94c-1.44-1.14-2.47-4.84-.83-4.65s6.56,4.65,6.56,4.65Z" transform="translate(-68.59 -60.59)"/><path class="cls-13" d="M154.59,200.6s5.68,0,7.48,1.34a67.94,67.94,0,0,1,5.54,5.07A52.64,52.64,0,0,1,154.59,200.6Z" transform="translate(-68.59 -60.59)"/><path class="cls-15" d="M163.48,224.4s22.32,10.28,33.63,12.83,25.64,1,25.64,1-14.57,2.56-27.45.26S163.48,224.4,163.48,224.4Z" transform="translate(-68.59 -60.59)"/><path class="cls-13" d="M69.64,137.26c1.22,6.1,9.51-2,11.34-5.5S70,128.37,69.64,137.26Z" transform="translate(-68.59 -60.59)"/><path class="cls-10" d="M184,177.94s27.63-18.93,34.22-35.47C218.18,142.47,205,164,184,177.94Z" transform="translate(-68.59 -60.59)"/><path class="cls-6" d="M132.35,173.39c-2.64.28-15.27-10.39-17.22-15.4s15.36.12,42-1.36,56.58-13.79,56.1-12.2-16.91,20.34-21,21.22-12.95-5.2-31.7-4.71S135.93,173,132.35,173.39Z" transform="translate(-68.59 -60.59)"/></g></g></g></svg>