<svg id="Layer_53" data-name="Layer 53" xmlns="http://www.w3.org/2000/svg" viewBox="0 0 411.75 411.75"><defs><style>.cls-1{fill:#a2dcf1;}.cls-2{fill:#c92d2d;}.cls-3{fill:#214865;}.cls-4{fill:#fcb54a;}</style></defs><circle class="cls-1" cx="4185.46" cy="2255.7" r="205.87" transform="translate(-4348.71 1570.42) rotate(-45)"/><path class="cls-2" d="M4175.61,2139.22c-61.94,1.29-111.76,50.94-111.76,112,0,61.9,51.14,112.09,114.22,112.09a115.48,115.48,0,0,0,50.66-11.63l-55.65-100.46Z" transform="translate(-3979.59 -2049.82)"/><path class="cls-3" d="M4192.81,2121.79l-3.84,121.1,116.46,33.56a121.18,121.18,0,0,0-112.62-154.66Z" transform="translate(-3979.59 -2049.82)"/><polyline class="cls-4" points="291.2 321.94 204.63 201.46 345.59 250.13"/><path class="cls-4" d="M4325.18,2300l-141-48.66,86.57,120.47A149.93,149.93,0,0,0,4325.18,2300Z" transform="translate(-3979.59 -2049.82)"/></svg>