<svg xmlns="http://www.w3.org/2000/svg" xmlns:xlink="http://www.w3.org/1999/xlink" viewBox="0 0 108.92 125.93"><defs><style>.cls-1{isolation:isolate;}.cls-2{fill:#e1f3ff;}.cls-3{fill:url(#Безымянный_градиент_49);}.cls-4{fill:#bde0ff;}.cls-23,.cls-26,.cls-4{mix-blend-mode:soft-light;}.cls-5{fill:url(#Безымянный_градиент_29);}.cls-6{fill:url(#Безымянный_градиент_29-2);}.cls-7{fill:#ff1d9c;}.cls-8{fill:#4f31e0;}.cls-9{fill:#6877ff;}.cls-10{fill:url(#Безымянный_градиент_188);}.cls-11{fill:url(#Безымянный_градиент_188-2);}.cls-12{fill:url(#Безымянный_градиент_183);}.cls-13,.cls-14,.cls-18,.cls-22,.cls-28{mix-blend-mode:multiply;}.cls-13,.cls-18,.cls-22{opacity:0.62;}.cls-13{fill:url(#Безымянный_градиент_75);}.cls-14{fill:#361488;opacity:0.5;}.cls-15{fill:url(#Безымянный_градиент_188-3);}.cls-16{fill:url(#Безымянный_градиент_188-4);}.cls-17{fill:url(#Безымянный_градиент_183-2);}.cls-18{fill:url(#Безымянный_градиент_75-2);}.cls-19{fill:#981382;}.cls-20{fill:url(#Безымянный_градиент_125);}.cls-21{fill:url(#Безымянный_градиент_181);}.cls-22{fill:url(#Безымянный_градиент_75-3);}.cls-23,.cls-27{fill:#fff;}.cls-24{fill:url(#Безымянный_градиент_202);}.cls-25{fill:url(#Безымянный_градиент_200);}.cls-28{opacity:0.81;fill:url(#Безымянный_градиент_203);}</style><linearGradient id="Безымянный_градиент_49" x1="382.63" y1="307.24" x2="382.63" y2="264.18" gradientTransform="matrix(0.44, 0.9, -0.9, 0.44, 523.41, -207.04)" gradientUnits="userSpaceOnUse"><stop offset="0" stop-color="#1c257b"/><stop offset="1" stop-color="#6a2c9a"/></linearGradient><radialGradient id="Безымянный_градиент_29" cx="153.13" cy="272.91" r="19.74" gradientTransform="matrix(-0.95, -0.31, -0.31, 0.95, 623.65, 42.18)" gradientUnits="userSpaceOnUse"><stop offset="0" stop-color="#3996f7"/><stop offset="1" stop-color="#6840d5"/></radialGradient><radialGradient id="Безымянный_градиент_29-2" cx="81.44" cy="270.66" r="12.96" gradientTransform="matrix(0.97, 0.25, -0.25, 0.97, 428.56, -21.72)" xlink:href="#Безымянный_градиент_29"/><radialGradient id="Безымянный_градиент_188" cx="375.43" cy="298.37" r="16.09" gradientTransform="translate(-28.17 43.33) rotate(-6.18)" gradientUnits="userSpaceOnUse"><stop offset="0" stop-color="#a157ff"/><stop offset="1" stop-color="#63399a"/></radialGradient><radialGradient id="Безымянный_градиент_188-2" cx="375.42" cy="293.29" r="18.18" xlink:href="#Безымянный_градиент_188"/><radialGradient id="Безымянный_градиент_183" cx="373.89" cy="278.83" r="20.94" gradientTransform="translate(-28.17 43.33) rotate(-6.18)" gradientUnits="userSpaceOnUse"><stop offset="0" stop-color="#ff81ff"/><stop offset="1" stop-color="#9552ff"/></radialGradient><linearGradient id="Безымянный_градиент_75" x1="375.37" y1="307.05" x2="386.1" y2="307.05" gradientTransform="translate(-28.17 43.33) rotate(-6.18)" gradientUnits="userSpaceOnUse"><stop offset="0" stop-color="#8b8be0"/><stop offset="1" stop-color="#a177b7"/></linearGradient><radialGradient id="Безымянный_градиент_188-3" cx="447.48" cy="306.17" r="16.09" gradientTransform="matrix(-0.99, -0.11, -0.11, 0.99, 921.97, 43.33)" xlink:href="#Безымянный_градиент_188"/><radialGradient id="Безымянный_градиент_188-4" cx="447.48" cy="301.1" r="18.18" gradientTransform="matrix(-0.99, -0.11, -0.11, 0.99, 921.97, 43.33)" xlink:href="#Безымянный_градиент_188"/><radialGradient id="Безымянный_градиент_183-2" cx="437.38" cy="289.3" r="20.94" gradientTransform="matrix(-0.99, -0.11, -0.11, 0.99, 921.97, 43.33)" xlink:href="#Безымянный_градиент_183"/><linearGradient id="Безымянный_градиент_75-2" x1="447.43" y1="314.85" x2="458.16" y2="314.85" gradientTransform="matrix(-0.99, -0.11, -0.11, 0.99, 921.97, 43.33)" xlink:href="#Безымянный_градиент_75"/><linearGradient id="Безымянный_градиент_125" x1="357.65" y1="270.94" x2="416.03" y2="270.94" gradientTransform="matrix(0.81, 0.59, -0.59, 0.81, 257.12, -162.22)" gradientUnits="userSpaceOnUse"><stop offset="0" stop-color="#971a8f"/><stop offset="0.47" stop-color="#ef22ac"/><stop offset="1" stop-color="#fe4cce"/></linearGradient><radialGradient id="Безымянный_градиент_181" cx="382.3" cy="254.1" r="30.06" gradientTransform="matrix(0.81, 0.59, -0.59, 0.81, 257.12, -162.22)" gradientUnits="userSpaceOnUse"><stop offset="0" stop-color="#fe117e"/><stop offset="1" stop-color="#b31a8f"/></radialGradient><linearGradient id="Безымянный_градиент_75-3" x1="411.15" y1="306.33" x2="427.95" y2="306.33" gradientTransform="matrix(1, 0, 0, 1, 0, 0)" xlink:href="#Безымянный_градиент_75"/><radialGradient id="Безымянный_градиент_202" cx="420.2" cy="305.34" r="25.85" gradientUnits="userSpaceOnUse"><stop offset="0" stop-color="#3996f7"/><stop offset="1" stop-color="#744fd8"/></radialGradient><linearGradient id="Безымянный_градиент_200" x1="411.24" y1="336.62" x2="411.24" y2="307.09" gradientUnits="userSpaceOnUse"><stop offset="0" stop-color="#1c257b"/><stop offset="1" stop-color="#4f3bba"/></linearGradient><linearGradient id="Безымянный_градиент_203" x1="409.71" y1="332.82" x2="409.71" y2="329.29" gradientUnits="userSpaceOnUse"><stop offset="0" stop-color="#7460e0"/><stop offset="1" stop-color="#fff"/></linearGradient></defs><g class="cls-1"><g id="icons"><path class="cls-2" d="M357,272.1c-1-22.6,30.76-51,58.14-46.26,28.93,5,54.29,67.77,26.88,88.93S358,295,357,272.1Z" transform="translate(-355.22 -210.7)"/><path class="cls-3" d="M418.47,278.11s.78-25.3,28.45-39.87c0,0,8.07,23.19-21.74,46.43Z" transform="translate(-355.22 -210.7)"/><path class="cls-4" d="M445.88,240.4l-23.35,38.77-2.11-5.88S423.12,250.61,445.88,240.4Z" transform="translate(-355.22 -210.7)"/><path class="cls-5" d="M397.58,281.6s6.55-22.48-15.69-34.66c0,0-9.5,20.45,12.77,33.84Z" transform="translate(-355.22 -210.7)"/><path class="cls-4" d="M381.89,246.94l15.69,34.66-3.35-2S375.3,268.41,381.89,246.94Z" transform="translate(-355.22 -210.7)"/><path class="cls-6" d="M426.52,274.65s4.4-14.74,21-13.54c0,0-2,14.67-19.1,14.12Z" transform="translate(-355.22 -210.7)"/><path class="cls-4" d="M447.53,261.11l-21,13.54,2.55.11S443.52,275.3,447.53,261.11Z" transform="translate(-355.22 -210.7)"/><polygon class="cls-7" points="0 39.99 6.64 29.8 10.18 32.22 3.12 41.78 0 39.99"/><polygon class="cls-8" points="81.32 25 76.63 31.25 74.63 29.64 78.92 23.84 81.32 25"/><polygon class="cls-8" points="41.48 33.56 33.9 35.45 33.37 32.95 40.35 31.16 41.48 33.56"/><polygon class="cls-9" points="56.33 21.5 55.53 11.96 58.82 10.04 61.34 21.61 56.33 21.5"/><path class="cls-10" d="M388.33,298.1l-.38.58,1.87,7.28a1.75,1.75,0,0,1,.06.33,15.06,15.06,0,0,1,.06,4.58l-.81-.22-5.44-1.49L378,307.62l-11,5.67a17.42,17.42,0,0,1-.92-5v-.14l.33-7.17-.46-.46-8.32-8.23a5,5,0,0,1-.36-3.3l12-1.27,4.88-.5,8.16-.87,12-1.26a4.77,4.77,0,0,1,.36,3.29Z" transform="translate(-355.22 -210.7)"/><path class="cls-11" d="M388.37,298.23c-.14.14-.27.3-.42.45l1.47,9,.52,3.23c-.25,0-.51,0-.76,0H389c-.54,0-1.06-.08-1.58-.16a8,8,0,0,1-1-.18l-.74-.15-.82-.22c-.27-.07-.55-.14-.83-.23l-.09,0-.24-.09c-2-.65-3.91-1.5-5.64-2.19a42.37,42.37,0,0,1-11,5.67L366.9,310l-.43-9.06-.46-.34c-3.59-2.69-6.4-5-8.32-8.35l1.48-.56,10.07-3.81.1-.2,2.58-5.15,2.86-5.68,7.6,9.46.14.17L393,288.08l1.78.27A30.2,30.2,0,0,1,388.37,298.23Z" transform="translate(-355.22 -210.7)"/><path class="cls-12" d="M393,288.08c-2,3.11-5.35,7.3-5.35,7.3s.32,1.14.73,2.72c0,0,0,.09,0,.13a44.44,44.44,0,0,1,1.51,8.06c0,.67-.07,1.12-.29,1.27a.67.67,0,0,1-.17.08,2.45,2.45,0,0,1-1,0h-.07l-.6-.09c-.31-.05-.62-.11-.94-.19-.9-.21-1.92-.51-2.95-.84h0c-2.5-.8-5-1.78-5.85-2.1l-.3-.12S369,310.14,366.9,310a.42.42,0,0,1-.2,0c-.27-.09-.44-.81-.55-1.84v0a68.15,68.15,0,0,1-.13-7.51v-.12c.05-1.65.1-2.85.1-2.85a80.94,80.94,0,0,1-6.94-5.94c-1.14-1.16-1.93-2.2-1.84-2.74.26-1.53,11.55-4.38,11.55-4.38s.79-2.15,1.8-4.55v0c1.26-3,2.87-6.36,3.74-6.46,1.7-.18,7.74,9.63,7.74,9.63s12.08.7,12.21,1.88A7.45,7.45,0,0,1,393,288.08Z" transform="translate(-355.22 -210.7)"/><path class="cls-13" d="M389.18,310.86H389a10.59,10.59,0,0,1-1.58-.16,8,8,0,0,1-1-.18l-.74-.15-.82-.22c-.27-.07-.55-.14-.83-.23l-.09,0-.24-.07v0a44.52,44.52,0,0,1-5.64-2.19l-.36-3.3.3.12a58.08,58.08,0,0,0,5.84,2.16,26.56,26.56,0,0,0,3,.79c.32.08.63.14.94.19l.6.09h.07a.9.9,0,0,0,.16,0l.59,2.95Z" transform="translate(-355.22 -210.7)"/><path class="cls-14" d="M394.73,288.35a30.2,30.2,0,0,1-6.36,9.88,44.44,44.44,0,0,1,1.51,8.06,15.06,15.06,0,0,1,.06,4.58c-.25,0-.51,0-.76,0H389a10.59,10.59,0,0,1-1.58-.16,8,8,0,0,1-1-.18l-.74-.15-.82-.22c-.27-.07-.55-.14-.83-.23l-.09,0-.24-.07v0l0-.65.12-2.56v-.05h0l-9.6-19.35-2.3-4.65L370.68,280v0c1.26-3,2.87-6.36,3.74-6.46,1.7-.18,7.74,9.63,7.74,9.63s12.08.7,12.21,1.88A4.77,4.77,0,0,1,394.73,288.35Z" transform="translate(-355.22 -210.7)"/><path class="cls-15" d="M433,298.1l.38.58L431.49,306c0,.11,0,.21-.06.33a15.06,15.06,0,0,0-.06,4.58l.81-.22,5.44-1.49,5.66-1.54,11,5.67a17.36,17.36,0,0,0,.93-5v-.14l-.32-7.17.46-.46,8.31-8.23A5,5,0,0,0,464,289l-12-1.27-4.87-.5-8.17-.87-12-1.26a4.72,4.72,0,0,0-.35,3.29Z" transform="translate(-355.22 -210.7)"/><path class="cls-16" d="M432.94,298.23c.14.14.27.3.42.45l-1.47,9-.52,3.23c.26,0,.52,0,.77,0h.17c.54,0,1.07-.08,1.58-.16a8.14,8.14,0,0,0,1-.18l.74-.15.82-.22c.27-.07.54-.14.82-.23l.09,0a2.5,2.5,0,0,1,.25-.09c2-.65,3.91-1.5,5.63-2.19a42.37,42.37,0,0,0,11,5.67l.16-3.28.44-9.06.45-.34c3.6-2.69,6.41-5,8.32-8.35l-1.48-.56-10.07-3.81-.1-.2-2.58-5.15-2.86-5.68-7.6,9.46-.14.17-10.42,1.59-1.78.27A30,30,0,0,0,432.94,298.23Z" transform="translate(-355.22 -210.7)"/><path class="cls-17" d="M428.37,288.08c2,3.11,5.35,7.3,5.35,7.3s-.33,1.14-.74,2.72c0,0,0,.09,0,.13a45.32,45.32,0,0,0-1.51,8.06c0,.67.08,1.12.3,1.27l.16.08a2.49,2.49,0,0,0,1.05,0H433l.6-.09c.31-.05.62-.11.94-.19.9-.21,1.93-.51,2.95-.84h0c2.49-.8,5-1.78,5.85-2.1l.29-.12s8.69,5.82,10.77,5.69a.42.42,0,0,0,.2,0c.27-.09.44-.81.56-1.84v0a65.77,65.77,0,0,0,.13-7.51s0-.08,0-.12c-.05-1.65-.11-2.85-.11-2.85a79.33,79.33,0,0,0,6.94-5.94c1.14-1.16,1.93-2.2,1.84-2.74-.25-1.53-11.55-4.38-11.55-4.38s-.78-2.15-1.8-4.55v0c-1.27-3-2.88-6.36-3.75-6.46-1.7-.18-7.74,9.63-7.74,9.63s-12.08.7-12.21,1.88A7.52,7.52,0,0,0,428.37,288.08Z" transform="translate(-355.22 -210.7)"/><path class="cls-18" d="M432.14,310.86h.17a10.48,10.48,0,0,0,1.58-.16,8.14,8.14,0,0,0,1-.18l.74-.15.82-.22c.27-.07.54-.14.82-.23l.09,0,.25-.07v0a45.05,45.05,0,0,0,5.63-2.19l.36-3.3-.29.12a59.55,59.55,0,0,1-5.85,2.16,26,26,0,0,1-3,.79c-.32.08-.63.14-.94.19l-.6.09h-.06l-.17,0-.59,2.95Z" transform="translate(-355.22 -210.7)"/><path class="cls-19" d="M440.37,273.11a7.41,7.41,0,0,1,0,5.2l-12.28,14.92,1.69,11.65a24,24,0,0,1-.64,7.65l-18-7.07-18,7a27.37,27.37,0,0,1-.59-8l1.75-11.32-12.19-15c-.46-2.14-.72-3.39,0-5.2Z" transform="translate(-355.22 -210.7)"/><path class="cls-19" d="M421.69,273.34l18.68,5c-3.43,6.48-6.72,10-12.28,14.92l1.05,19.3c-7.2-.69-13-4.42-18-7.07-5.72,3.35-10.57,5-18,7l1.16-19.3c-5.46-5.05-9.67-9.21-12.19-15l18.71-4.86,10.49-16.23Z" transform="translate(-355.22 -210.7)"/><path class="cls-20" d="M421.69,268.14s18.68,3.13,18.68,5c0,2.66-12.28,14.92-12.28,14.92s3.17,18.16,1.05,19.3c-2.38,1.28-18-7.07-18-7.07s-15.54,8.16-18,7c-1.75-.83,1.16-19.3,1.16-19.3s-13-12.28-12.19-15c.65-2.32,18.71-4.86,18.71-4.86s8-16.23,10.49-16.23C414,251.85,421.69,268.14,421.69,268.14Z" transform="translate(-355.22 -210.7)"/><path class="cls-21" d="M427.86,305.49c-2.82,0-12.66-4.94-16.22-6.84l-.49-.26-.48.26c-3.57,1.87-13.44,6.72-16.28,6.72h0c-.49-1.8.38-10.3,1.52-17.55l.08-.54-.39-.38c-5.51-5.22-11.35-11.76-11.49-13.4,1.2-1.15,9.77-2.95,17.21-4l.55-.07.24-.49c3.33-6.75,7.74-14.32,9.22-15.08,1.52.71,5.86,8.31,9.1,15.12l.23.49.53.09c7.19,1.2,15.46,3,17.12,4-.68,1.88-6.32,8.24-11.5,13.42l-.38.38.09.53c1.29,7.35,2.19,16,1.47,17.55Z" transform="translate(-355.22 -210.7)"/><path class="cls-22" d="M411.15,305.46v-5.2s9.74,5.63,16.34,7.1l.46,5S422.11,312.06,411.15,305.46Z" transform="translate(-355.22 -210.7)"/><path class="cls-23" d="M387.74,272.15S405.49,285,428,284.79c0,0,10.2-7.6,11.62-11.44,0,0-3.83-2.29-18.28-4.27,0,0-4.44-11.16-10.05-16.42a49.25,49.25,0,0,0-8.71,16.17S393.82,269.41,387.74,272.15Z" transform="translate(-355.22 -210.7)"/><path class="cls-2" d="M372.43,228.2c1.59,3.12,27.94-4.14,30.61-9.31s-10.63-9.36-17.93-7.9S370.38,224.16,372.43,228.2Z" transform="translate(-355.22 -210.7)"/><path class="cls-24" d="M383.12,309.68a21.2,21.2,0,0,1,7.65-4.86,137.53,137.53,0,0,1,43,0s4.2,2.32,5.58,4.86Z" transform="translate(-355.22 -210.7)"/><path class="cls-23" d="M419.41,303.5l1.52,4.06s6.87.26,11.06.91l-2.41-4.24S422.93,303.46,419.41,303.5Z" transform="translate(-355.22 -210.7)"/><path class="cls-25" d="M387.22,332.82s-4.1-7.48-4.1-23.14c0,0,24.94-5.83,56.23,0,0,0,0,15.61-5.69,26.94l-3.89-3.81Z" transform="translate(-355.22 -210.7)"/><g class="cls-26"><polygon class="cls-27" points="39.21 103.8 39.65 106.61 70.59 106.61 71.08 103.56 39.21 103.8"/><polygon class="cls-27" points="39.9 108.1 40.37 110.53 54.71 110.53 54.71 108.1 39.9 108.1"/><polygon class="cls-27" points="40.4 112.02 40.87 114.45 61.18 114.45 61.18 112.02 40.4 112.02"/></g><path class="cls-28" d="M429.77,332.81l3.42-3.52s-22.6,4.72-46.95,1.23l1,2.3Z" transform="translate(-355.22 -210.7)"/></g></g></svg>