<svg id="Layer_1" data-name="Layer 1" xmlns="http://www.w3.org/2000/svg" xmlns:xlink="http://www.w3.org/1999/xlink" viewBox="0 0 570.16 543.77"><defs><style>.cls-1{fill:#ffbd39;}.cls-2{fill:url(#linear-gradient);}.cls-3{fill:#fff;}.cls-4{opacity:0.6;}.cls-5{fill:#ff5f82;}.cls-6{fill:#872a2a;}.cls-7{fill:#541300;}</style><linearGradient id="linear-gradient" x1="4079.98" y1="247.69" x2="4392.18" y2="622.72" gradientUnits="userSpaceOnUse"><stop offset="0.04" stop-color="#fff466"/><stop offset="0.08" stop-color="#fff466"/><stop offset="0.32" stop-color="#ffec5f"/><stop offset="0.69" stop-color="#ffd54d"/><stop offset="0.86" stop-color="#ffc943"/></linearGradient></defs><path class="cls-1" d="M4212.26,100.89c42.44,0,100.94,148.74,107.42,152.78s163.6,23,176.63,53.6S4388.45,448.38,4385.45,455.9s27.21,164.71,2.36,185.29-166.89-59.88-175.55-59.92-145,80.92-175.55,59.92,4.57-176.78,2.36-185.29S3914.4,347.73,3928.21,307.27s171-49.41,176.63-53.6S4169.82,100.89,4212.26,100.89Z" transform="translate(-3927.13 -100.89)"/><path class="cls-2" d="M4212.26,119.36c39.55,0,91.42,144,97.46,147.72s155.14,16.15,167.29,44.64-103.2,128.87-106,135.87,28,156.19,4.86,175.36-155.56-58.46-163.63-58.51S4077.14,642.53,4048.63,623s9.58-164.77,7.52-172.7S3934.63,349.43,3947.5,311.72s164.7-40.73,170-44.64S4172.7,119.36,4212.26,119.36Z" transform="translate(-3927.13 -100.89)"/><path class="cls-3" d="M3982.12,318.69c-2.75-26.81,85.23-42.6,89.12-11.22S3985.88,355.24,3982.12,318.69Z" transform="translate(-3927.13 -100.89)"/><path class="cls-3" d="M4093.77,298.66c-.67-17.25,25.64-18.3,27-4.15C4122.31,310.36,4094.38,314.8,4093.77,298.66Z" transform="translate(-3927.13 -100.89)"/><g class="cls-4"><g class="cls-4"><path class="cls-5" d="M4129.55,439.34c0,17.45-15.33,31.6-34.22,31.6s-34.23-14.15-34.23-31.6,15.32-31.59,34.23-31.59S4129.55,421.89,4129.55,439.34Z" transform="translate(-3927.13 -100.89)"/></g><g class="cls-4"><path class="cls-5" d="M4363.31,439.34c0,17.45-15.32,31.6-34.21,31.6s-34.23-14.15-34.23-31.6,15.33-31.59,34.23-31.59S4363.31,421.89,4363.31,439.34Z" transform="translate(-3927.13 -100.89)"/></g></g><path class="cls-6" d="M4137.66,422c7-5.31,150.31-5.31,157.42,0s-17.63,65.84-78.67,65.84S4130.64,427.29,4137.66,422Z" transform="translate(-3927.13 -100.89)"/><path class="cls-7" d="M4333.48,322.2c-3.67-8.54-70.49,24.19-69.2,41.54s62.31,34.3,70.05,25.18-40.39-17.17-40.82-26.9S4338.64,334.24,4333.48,322.2Z" transform="translate(-3927.13 -100.89)"/><path class="cls-7" d="M4090.94,322.2c3.67-8.54,70.49,24.19,69.2,41.54s-62.32,34.3-70.05,25.18,40.39-17.17,40.82-26.9S4085.79,334.24,4090.94,322.2Z" transform="translate(-3927.13 -100.89)"/></svg>