<svg id="Layer_56" data-name="Layer 56" xmlns="http://www.w3.org/2000/svg" viewBox="0 0 411.75 411.75"><defs><style>.cls-1{fill:#cccbc9;}.cls-2{fill:#f3715b;}.cls-3{fill:#313d4d;}</style></defs><circle class="cls-1" cx="811.46" cy="2737.17" r="205.87" transform="translate(-2303.39 -1155.81) rotate(-45)"/><path class="cls-2" d="M920.89,2709H903.4c-2.37-11-6.26-19-11.42-27.27l.06-.08,12.36-12.38a7,7,0,0,0,0-10l-21.5-21.5a7,7,0,0,0-9.95,0l-12.5,12.36A100.07,100.07,0,0,0,833,2639v-17.56c0-3.89-2.88-7.44-6.76-7.44H795.83c-3.89,0-7.83,3.55-7.83,7.44v17.48a88.29,88.29,0,0,0-26.81,11.42l.14-.06-12.27-12.36a7,7,0,0,0-9.9,0l-21.47,21.5a7,7,0,0,0,0,9.95l12.37,12.34A99.09,99.09,0,0,0,718.91,2709H701.34a7.35,7.35,0,0,0-7.34,7.09v30.4c0,3.89,3.46,6.51,7.34,6.51h17.49a82.14,82.14,0,0,0,11.42,27.47l-.06.19-12.36,12.43a7.08,7.08,0,0,0,0,10l21.5,21.51a7,7,0,0,0,9.95,0l11.88-12.36A85.59,85.59,0,0,0,788,2823.41V2841c0,3.88,4.11,7,8,7H826.4c3.88,0,6.6-3.14,6.6-7V2823.5a104.64,104.64,0,0,0,27.43-11.42l.16.05L873,2824.49a7.07,7.07,0,0,0,10,0L904.5,2803a7,7,0,0,0,0-10l-12.36-12.54a100.49,100.49,0,0,0,11.17-27.5h17.57a6.8,6.8,0,0,0,7.11-6.67v-30.41A7,7,0,0,0,920.89,2709Zm-127.41,62.45c-.43-.18-.85-.38-1.27-.58-1.27-.61-2.51-1.29-3.72-2q-.9-.54-1.77-1.14c-.59-.39-1.16-.8-1.72-1.22-.28-.21-.56-.42-.83-.64a43.49,43.49,0,0,1-4.51-4.07,44.44,44.44,0,0,1-3.9-4.65q-.72-1-1.38-2a43.79,43.79,0,0,1,7.38-56.12c.78-.71,1.58-1.39,2.41-2l.83-.64c.56-.42,1.13-.82,1.72-1.22a43.18,43.18,0,0,1,5.49-3.16c.64-.31,1.29-.6,1.94-.87a43.86,43.86,0,0,1,37,1.34c.63.33,1.25.66,1.86,1,.92.52,1.81,1.08,2.69,1.67.58.4,1.15.8,1.71,1.22l.84.64c.55.44,1.09.88,1.62,1.34.79.69,1.56,1.41,2.31,2.15.49.49,1,1,1.45,1.52a44.92,44.92,0,0,1,3.29,4.09c.41.57.8,1.16,1.18,1.75s.75,1.19,1.1,1.8c.53.92,1,1.86,1.48,2.82a43.93,43.93,0,0,1,2.94,29.92c-.18.7-.38,1.39-.59,2.08-.32,1-.68,2-1.07,3-.26.66-.54,1.32-.83,2-.19.43-.4.85-.6,1.27-.42.85-.86,1.69-1.33,2.5-.35.61-.72,1.21-1.1,1.81s-.61.93-.93,1.39-.57.81-.87,1.2l-.64.84c-.43.55-.88,1.09-1.34,1.62l-.69.79c-.48.51-1,1-1.45,1.52l-.76.73a41.35,41.35,0,0,1-3.17,2.75l-.84.64c-.56.42-1.13.83-1.71,1.22s-1.18.78-1.78,1.14l-.91.54c-.61.35-1.23.69-1.86,1a43.9,43.9,0,0,1-36.27,1.64C794.39,2771.85,793.93,2771.66,793.48,2771.45Z" transform="translate(-605.59 -2531.3)"/><path class="cls-3" d="M908.32,2698.47h-5.49a57.92,57.92,0,0,0-3.48-8.48l3.9-4a19.75,19.75,0,0,0,0-27.89l-19-19a19.66,19.66,0,0,0-27.82,0l0,0,0,0-3.75,3.81c-2.64-1.23-5.54-2.34-8.06-3.32v-5.53a19.78,19.78,0,0,0-20-19.63H797.66a19.31,19.31,0,0,0-14.27,6.21,19.89,19.89,0,0,0-5.23,13.42v5.47c-2.52,1-5.62,2.22-8.39,3.54l-3.92-4a19.63,19.63,0,0,0-27.78,0l-19,19a19.68,19.68,0,0,0,0,27.82l3.9,4.07a55.22,55.22,0,0,0-3.36,8.4h-5.53A19,19,0,0,0,695,2717.83v26.91c0,11,8.15,19.26,19.07,19.26h5.5a56.55,56.55,0,0,0,3.49,8.46l-3.91,4a19.73,19.73,0,0,0,0,27.85l19,19a19.65,19.65,0,0,0,27.79,0l3.92-4c2.72,1.25,5.77,2.39,8.29,3.41v5.52A19.73,19.73,0,0,0,797.81,2848h26.9a19.76,19.76,0,0,0,19.82-19.67v-5.5c2.52-1,5.47-2.15,8.15-3.44l3.84,3.85a19.65,19.65,0,0,0,27.82,0l19-19a19.68,19.68,0,0,0,0-27.82l-3.91-4a57.06,57.06,0,0,0,3.37-8.38h5.51c11,0,20.23-8.55,20.23-19.41v-26.9C928.55,2706.88,919.33,2698.47,908.32,2698.47Zm6.79,46.12c0,3.44-3.35,6-6.79,6H892.78a83.34,83.34,0,0,1-9.88,24.3l10.94,11a6.26,6.26,0,0,1,0,8.84l-19,19a6.19,6.19,0,0,1-8.79,0l-10.93-10.94v-.05a84.9,84.9,0,0,1-24,10.11v15.47a6.36,6.36,0,0,1-6.38,6.23h-26.9a6.22,6.22,0,0,1-6.21-6.23V2812.8a82.66,82.66,0,0,1-24.18-9.88l-11,10.94a6.11,6.11,0,0,1-4.37,1.82,6.18,6.18,0,0,1-4.4-1.82l-19-19a6.24,6.24,0,0,1,0-8.82l10.94-11,0-.22a77.35,77.35,0,0,1-10.11-24.28H714.05c-3.43,0-5.63-2.39-5.63-5.82v-26.91c0-3.44,2.2-5.92,5.63-5.92H729.6a83.35,83.35,0,0,1,9.88-24.32l-10.94-11a6.3,6.3,0,0,1,0-8.86l19-19.05a6.24,6.24,0,0,1,8.82,0l11,10.93.05.05a85.55,85.55,0,0,1,24.16-10.1v-15.47a6.06,6.06,0,0,1,6.06-6.19h26.91a6.45,6.45,0,0,1,6.52,6.19v15.54a81.63,81.63,0,0,1,24,9.88l10.8-10.94a6.19,6.19,0,0,1,4.4-1.82,6.26,6.26,0,0,1,4.41,1.82l19,19a6.23,6.23,0,0,1,0,8.81l-10.94,10.95,0,.26a77.46,77.46,0,0,1,10.11,24.3h15.46c3.44,0,6.79,2.34,6.79,5.78Z" transform="translate(-605.59 -2531.3)"/></svg>