<svg id="Layer_27" data-name="Layer 27" xmlns="http://www.w3.org/2000/svg" viewBox="0 0 411.75 411.75"><defs><style>.cls-1{fill:#3f4d50;}.cls-2{fill:#fdba14;}.cls-3{fill:#ffd15f;}.cls-4{fill:#020608;}.cls-5{fill:#fdfefe;}.cls-6{fill:#19334b;}</style></defs><circle class="cls-1" cx="205.87" cy="205.87" r="205.87"/><path class="cls-2" d="M1182.77,1270.94h29.66a1.43,1.43,0,0,1,1.43,1.43v.08a1.44,1.44,0,0,1-1.44,1.44h-29.66a1.43,1.43,0,0,1-1.43-1.43v-.08a1.44,1.44,0,0,1,1.44-1.44Z" transform="translate(-1099.47 -1075.58) rotate(-0.54)"/><rect class="cls-2" x="1195.57" y="1222.62" width="32.53" height="2.95" rx="1.44" transform="translate(-328.52 -1524.69) rotate(29.47)"/><path class="cls-2" d="M1364.25,1219.21h29.66a1.44,1.44,0,0,1,1.44,1.44v.08a1.43,1.43,0,0,1-1.43,1.43h-29.66a1.44,1.44,0,0,1-1.44-1.44v-.08a1.44,1.44,0,0,1,1.44-1.44Z" transform="translate(2099.23 485.96) rotate(149.51)"/><path class="cls-2" d="M1380.51,1267.67h29.66a1.43,1.43,0,0,1,1.43,1.43v.08a1.44,1.44,0,0,1-1.44,1.44h-29.66a1.44,1.44,0,0,1-1.44-1.44v-.08A1.44,1.44,0,0,1,1380.51,1267.67Z" transform="translate(1713.7 1439.68) rotate(179.52)"/><path class="cls-3" d="M1361.75,1272a60.68,60.68,0,0,0-25-45.58s-13.9-11.91-39.12-12.07c-25.21.16-39.06,12.07-39.06,12.07a60.53,60.53,0,0,0-24.93,45.58c-2.91,22.63,22.64,62,22.64,62,13.74,20.2,17.32,46,17.32,46h48.17s3.58-25.82,17.32-46C1339.11,1334,1364.66,1294.59,1361.75,1272Z" transform="translate(-1087.59 -1086.87)"/><path class="cls-4" d="M1319.2,1293.76l.11,0a.28.28,0,0,1,.14.37c-.1.23-9.9,23.34-12.44,47.07-1.76,16.5.86,37.93.89,38.15a.28.28,0,0,1-.24.31.29.29,0,0,1-.31-.25c0-.21-2.66-21.7-.89-38.27,2.54-23.81,12.38-47,12.48-47.23A.28.28,0,0,1,1319.2,1293.76Z" transform="translate(-1087.59 -1086.87)"/><path class="cls-4" d="M1273.31,1294.19a.28.28,0,0,1,.26.17c.1.23,10,23.21,12.76,47,2.09,17.79.45,38.07.43,38.27a.29.29,0,0,1-.3.26.28.28,0,0,1-.25-.3c0-.21,1.65-20.43-.43-38.16-2.79-23.7-12.63-46.61-12.72-46.84a.27.27,0,0,1,.14-.37Z" transform="translate(-1087.59 -1086.87)"/><path class="cls-4" d="M1319.2,1293.71a.33.33,0,0,1,0,.66c-1.24,0-1.88,1.18-2.55,2.41s-1.51,2.74-3.14,2.76h0c-1.62,0-2.4-1.37-3.16-2.7s-1.36-2.36-2.58-2.36h0c-1.24,0-1.88,1.18-2.56,2.41s-1.5,2.74-3.13,2.75h0c-1.61,0-2.4-1.37-3.16-2.69s-1.35-2.36-2.58-2.36h0c-1.23,0-1.87,1.17-2.55,2.41s-1.5,2.74-3.13,2.75h0c-1.61,0-2.4-1.37-3.16-2.69s-1.35-2.37-2.58-2.37h0c-1.23,0-1.87,1.18-2.55,2.41s-1.5,2.74-3.13,2.76-2.42-1.36-3.19-2.7-1.36-2.37-2.6-2.36a.33.33,0,0,1,0-.66h0c1.62,0,2.4,1.37,3.16,2.69s1.36,2.36,2.58,2.36h0c1.24,0,1.88-1.17,2.56-2.41s1.5-2.74,3.13-2.75h0c1.62,0,2.4,1.37,3.16,2.69s1.36,2.37,2.58,2.37h0c1.24,0,1.88-1.18,2.56-2.41s1.5-2.74,3.13-2.76h0c1.62,0,2.4,1.37,3.16,2.7s1.36,2.36,2.58,2.36h0c1.24,0,1.88-1.18,2.56-2.41s1.5-2.74,3.13-2.76h0c1.61,0,2.39,1.37,3.16,2.7s1.35,2.36,2.58,2.36h0c1.23,0,1.87-1.18,2.55-2.41s1.51-2.74,3.13-2.75Z" transform="translate(-1087.59 -1086.87)"/><path class="cls-5" d="M1320.91,1414.67l-23.12-.08h-23.43s-1.59,1.45,2.39,4.38,17.25,8.18,17.25,8.18a8.69,8.69,0,0,0,3.9,1h0a8.85,8.85,0,0,0,3.89-1.05s13.17-5.5,17.09-8.5S1320.91,1414.67,1320.91,1414.67Z" transform="translate(-1087.59 -1086.87)"/><path class="cls-6" d="M1294,1427.15a9.28,9.28,0,0,0,3.9.91V1428h0v.06a9,9,0,0,0,3.89-1s5.34-2.22,10.24-4.62l-6.32-.74-14.82,0-7.23,1C1288.61,1425,1294,1427.15,1294,1427.15Z" transform="translate(-1087.59 -1086.87)"/><rect class="cls-2" x="1229.38" y="1186.33" width="32.53" height="2.95" rx="1.44" transform="translate(548.75 -1575.33) rotate(59.48)"/><rect class="cls-2" x="1276.8" y="1171.82" width="32.53" height="2.95" rx="1.44" transform="translate(1367.24 -1217.02) rotate(89.49)"/><rect class="cls-2" x="1325.12" y="1182.97" width="32.53" height="2.95" rx="1.44" transform="translate(1945.22 -486.65) rotate(119.5)"/><rect class="cls-5" x="1277.45" y="1389.14" width="41.13" height="25.53" transform="translate(1508.45 1716.94) rotate(180)"/><rect class="cls-5" x="1272.61" y="1380.33" width="50.33" height="8.82" rx="1.71" transform="translate(1507.95 1682.6) rotate(180)"/><rect class="cls-6" x="1277.29" y="1410.22" width="41.43" height="1.59" rx="0.69" transform="translate(1508.42 1735.15) rotate(180)"/><rect class="cls-6" x="1277.29" y="1404.79" width="41.43" height="1.59" rx="0.69" transform="translate(1508.42 1724.29) rotate(180)"/><rect class="cls-6" x="1277.29" y="1399.36" width="41.43" height="1.59" rx="0.69" transform="translate(1508.42 1713.43) rotate(180)"/><rect class="cls-6" x="1277.29" y="1393.92" width="41.43" height="1.59" rx="0.69" transform="translate(1508.42 1702.56) rotate(180)"/></svg>