<svg id="Layer_1" data-name="Layer 1" xmlns="http://www.w3.org/2000/svg" viewBox="0 0 1569.12 2482.74"><defs><style>.cls-1{fill:#e5b08c;}.cls-2{fill:#ff4f33;}.cls-3{fill:#f2a286;}.cls-4{fill:#ffcda7;}.cls-5{fill:#d26159;}.cls-6{fill:#00030f;}.cls-7{fill:#ffaa47;}.cls-8{fill:#fff6e1;}.cls-9{fill:#70aca0;}.cls-10{fill:#31756c;}.cls-11{fill:#d9ebff;}</style></defs><ellipse class="cls-1" cx="794.97" cy="2291.48" rx="652.03" ry="191.26"/><path class="cls-2" d="M889.62,1133.31l53.59-85.8A275.28,275.28,0,0,0,907.63,1018c-18.11,34.68-41.74,72.87-64.64,109.89q-7.56,12.23-15.12,24.49a49.38,49.38,0,0,0,61.75-19Z" transform="translate(-632.76 -275.33)"/><path class="cls-3" d="M1725.56,1988.42c4-8.92,31.3-70.08,57.12-148.9,25.57-78.07,54.91-189.91,49.48-279.41-9.74-160.42,35.58-395.71,43.44-434.95l-357.95-183a7.48,7.48,0,0,1-4-5.72c-20.49-159.49-77-577.34-95.35-619.19-32.64-24.2-70-32.61-102.84-23.07-23.88,6.95-42.25,23.18-50.56,44.63-13.2,146.39,27.28,440,27.69,442.94l0,.21C1309,931.1,1278,966.46,1258,974.26c-16.69,6.52-35.54-1.65-50.43-21.85-33.25-45.1-95.49-171-98.13-176.39-.07-.14-.13-.29-.2-.43C1062.47,663.07,984.07,481,968.68,461.6c-34.16-14.74-69.46-12-97.08,7.53-22.11,15.63-34.75,39.13-33,61.33,0,.1,0,.21,0,.32C841.49,610.36,922.3,870.34,947,948.12a76.35,76.35,0,0,1-3.67,56.19c-3.11,6.51-6.49,11.17-10.23,14.06a269.83,269.83,0,0,1,24.73,22.55,7.23,7.23,0,0,1,.61.63c32.91,34.29,52.08,74,57.16,118.49,3.76,33-.29,68.7-12,106.18a409.1,409.1,0,0,1-27.38,65.54c9.21,7.24,28.44,24.48,47.72,55,23.84,37.68,52.35,103.83,52.76,205a7.51,7.51,0,0,1-7.47,7.53,7.61,7.61,0,0,1-3-.59,7.49,7.49,0,0,1-4.58-6.88c-.39-97.06-27.36-160.27-49.92-196.22-16.87-26.88-33.84-42.93-42.79-50.33q-3.6,6.45-7.44,12.93c-31.58,53.07-64.63,88.28-66,89.76a7.5,7.5,0,0,1-10.91-10.3c.33-.35,33.48-35.7,64.21-87.43,28.09-47.28,59.89-118.35,51.88-188.49-4.36-38.18-20.07-72.61-46.83-102.92l-51.51,82.48a64.41,64.41,0,0,1-79.48,25.28c-1-.4-1.92-.84-2.87-1.3-45.48,74.72-84.74,146.59-72.26,185.37,23.52,73.05,47.06,221.63,46.64,294.41-.18,32.19,22.3,69.76,65,108.65,38.14,34.74,89.55,67.91,144.75,93.42,107.79,49.8,129.86,237,116,382.25-4.54,47.57,9.56,79.91,39.71,91,19.5,7.17,44.18,5.06,69.48-6,26.33-11.47,50.38-31.45,67.73-56.26,19.12-27.35,40.45-42.51,65.22-46.35,49.17-7.64,99.9,31.12,153.61,72.15,5.12,3.91,10.25,7.83,15.38,11.71,30.6,23.13,69.25,25.1,103.4,5.28,45.22-26.24,69.64-80.45,62.21-138.1C1681.93,2046.87,1702.65,2012.68,1725.56,1988.42Z" transform="translate(-632.76 -275.33)"/><path class="cls-4" d="M949.06,956.06c10.51-25,11.69-61.54,11.69-61.54S954.9,876,934.94,822.9,893.4,700.41,909.75,691.77s19.09-17.36,3.06-12.83-20.16.91-5-8.23,37.83-16.05,20.56-18.63-35,17.23-48.48-22.33-21.8-105.69,7.47-137.13C904.71,474,904.18,462,900.87,455.39a91.42,91.42,0,0,0-29.27,13.74c-22.11,15.63-34.75,39.13-33,61.33,0,.1,0,.21,0,.32C841.49,610.36,922.3,870.34,947,948.12A79.14,79.14,0,0,1,949.06,956.06Z" transform="translate(-632.76 -275.33)"/><path class="cls-5" d="M1696.87,2162.77c-14.94-115.9,5.78-150.09,28.69-174.35,4-8.92,31.3-70.08,57.12-148.9,14.9-45.49,31.07-102.46,40.9-159.78-40.82-44.75-83.22-78.29-125-93.69-106.33-39.2-476.34-55.91-476.34-55.91s-93.38,22.75-21.39,102.07,295.55,91.7,364.65,222.52-95.06,147.26-180,78.49-76.81,32.57-201.55-8.74c-108.85-36-141.82-88.84-255.73-118.8a645.82,645.82,0,0,0,75.88,41.4c107.79,49.8,129.86,237,116,382.25-4.54,47.57,9.56,79.91,39.71,91,19.5,7.17,44.18,5.06,69.48-6,26.33-11.47,50.38-31.45,67.73-56.26q4.1-5.86,8.34-11c41.26-154.47,89.52-292.16,85.42-199.15-5.44,123.39,61.64-65.79,64.06-1.22s193.89-94.75,193.65,100c-.09,77.27-17.18,127.38-36.54,163.92a103,103,0,0,0,22.68-9.81C1679.88,2274.63,1704.3,2220.42,1696.87,2162.77Z" transform="translate(-632.76 -275.33)"/><path class="cls-4" d="M1011.93,1806.72c-33.1-22-58.19-16.06-116.7-49.21s18.06-78.53,39.9-152.64-38.81-92.15-63-69.4-35.79,65.87-49.67,28.47-17.53-66.7-24.8-113.07-29.87-122.28-18.41-149.46,40.16-97.45,57.46-100.51,41.09-4.79,65.95-38.08c21-28.09,32.89-61.67,28.74-68.1l-29.06,46.53a64.41,64.41,0,0,1-79.48,25.28c-1-.4-1.92-.84-2.87-1.3-45.48,74.72-84.74,146.59-72.26,185.37,23.52,73.05,47.06,221.63,46.64,294.41-.18,32.19,22.3,69.76,65,108.65,32.85,29.91,75.53,58.67,122,82.36C1020.26,1842.94,1035.42,1822.31,1011.93,1806.72Z" transform="translate(-632.76 -275.33)"/><path class="cls-4" d="M1264.88,338.81c-13.2,146.39,27.28,440,27.69,442.94l0,.21c14.4,6.5,35.54,16.44,26.11-25.19s-22.34-194.26-15-199.4,66.64-3.44,58.24-13.1-31-.13-54.22-4.27-20.21-33,3.17-38.2,48.42-17.71,19.68-14.3-46.41.67-47-17.95-5.67-93.72,6.51-124.83c10.19-26,55.76-47,71.35-52.74a101.64,101.64,0,0,0-46,2.2C1291.56,301.13,1273.19,317.36,1264.88,338.81Z" transform="translate(-632.76 -275.33)"/><path class="cls-5" d="M1050,927.43s27.86-8,59.57-40.78c8.89-9.18,18.37-30.48,26.83-57.64-14.88-28.6-25.85-50.81-26.93-53-.07-.14-.13-.29-.2-.43C1062.47,663.07,984.07,481,968.68,461.6A113,113,0,0,0,935,452.72c-14.52,9.5-25.46,42.33.28,143.91C980.16,773.72,1050,927.43,1050,927.43Z" transform="translate(-632.76 -275.33)"/><path class="cls-5" d="M1513.63,936.44c-20.49-159.49-77-577.34-95.35-619.19-2.84-2.11-5.73-4.09-8.64-6-13.31,2.84-52.65,15.6-55.76,67.41-3.74,62.44,80.53,521.17,89.92,549.13,7.56,22.53,48.63,54.58,71.52,12.46A7.48,7.48,0,0,1,1513.63,936.44Z" transform="translate(-632.76 -275.33)"/><path class="cls-6" d="M1737.29,1997.86a7.57,7.57,0,0,0,1.39-2,1591.82,1591.82,0,0,0,58.2-151.45c37.82-115.43,54.73-211.37,50.25-285.16-10.47-172.59,43.74-434,44.29-436.59a7.5,7.5,0,0,0-3.93-8.22L1528,930.61c-3.14-24.27-20.37-157-39.63-292.25-43.08-302.55-53.95-322.88-57.52-329.56a7.48,7.48,0,0,0-2.08-2.43c-36.79-27.92-79.63-37.61-117.52-26.59-28.82,8.38-51,28.32-60.77,54.72a7.44,7.44,0,0,0-.44,1.92c-13.55,146.74,26.69,440.29,27.66,447.29,13,117.88-4.5,168.51-25.17,176.58-10,3.9-22.28-2.38-32.9-16.78-31.84-43.2-93.69-168-96.64-173.91-1.93-4.63-32.17-77.29-64.26-151.27-67.25-155.1-76.66-164.62-80.2-168.21a7.52,7.52,0,0,0-2.28-1.58c-39.53-17.61-80.86-14.59-113.31,8.34-26.35,18.63-41.4,47.2-39.29,74.6,3,81.67,84.22,343,109.05,421.18a61.36,61.36,0,0,1-2.9,45.18c-3.07,6.41-5.45,8.4-6.31,8.95a7.49,7.49,0,0,0-5,.46q-4.62-3.3-9.46-6.51a7.5,7.5,0,0,0-10.84,2.85c-18.25,36.08-43.5,76.9-67.92,116.38-58.35,94.31-113.46,183.4-96.78,235.22,23.15,71.92,46.33,218.14,45.92,289.73-.2,36.56,24,78,69.9,119.83,39.24,35.74,92,69.82,148.56,96,45,20.79,78.23,72.16,96.08,148.56,19.86,85,15.59,173.47,11.28,218.65-2.69,28.25.6,52,9.79,70.44,8,16.1,20.57,28.07,36.49,34.78,1,.44,2.1.86,3.18,1.25,47.87,17.62,115.82-12.12,154.69-67.71,16.65-23.81,34.71-36.94,55.22-40.12,42.85-6.66,91.11,30.22,142.2,69.25q7.71,5.89,15.45,11.76c35.58,26.89,80.42,29.24,120,6.29,23.2-13.47,42.84-35,55.29-60.73,13.52-27.89,18.45-59.79,14.27-92.26C1696.27,2040.75,1721,2014.94,1737.29,1997.86Zm-894.3-870c22.9-37,46.53-75.21,64.64-109.89a275.28,275.28,0,0,1,35.58,29.54l-53.59,85.8a49.38,49.38,0,0,1-61.75,19Q835.4,1140.11,843,1127.86Zm791.67,1173c-34.15,19.82-72.8,17.85-103.4-5.28-5.13-3.88-10.26-7.8-15.38-11.71-53.71-41-104.44-79.79-153.61-72.15-24.77,3.84-46.1,19-65.22,46.35-17.35,24.81-41.4,44.79-67.73,56.26-25.3,11-50,13.14-69.48,6-30.15-11.07-44.25-43.41-39.71-91,13.86-145.21-8.21-332.45-116-382.25-55.2-25.51-106.61-58.68-144.75-93.42-42.7-38.89-65.18-76.46-65-108.65.42-72.78-23.12-221.36-46.64-294.41C735.26,1311.82,774.52,1240,820,1165.23c1,.46,1.9.9,2.87,1.3a64.41,64.41,0,0,0,79.48-25.28l51.51-82.48c26.76,30.31,42.47,64.74,46.83,102.92,8,70.14-23.79,141.21-51.88,188.49-30.73,51.73-63.88,87.08-64.21,87.43a7.5,7.5,0,0,0,10.91,10.3c1.39-1.48,34.44-36.69,66-89.76q3.84-6.48,7.44-12.93c8.95,7.4,25.92,23.45,42.79,50.33,22.56,36,49.53,99.16,49.92,196.22a7.49,7.49,0,0,0,4.58,6.88,7.61,7.61,0,0,0,3,.59,7.51,7.51,0,0,0,7.47-7.53c-.41-101.17-28.92-167.32-52.76-205-19.28-30.47-38.51-47.71-47.72-55a409.1,409.1,0,0,0,27.38-65.54c11.73-37.48,15.78-73.21,12-106.18-5.08-44.53-24.25-84.2-57.16-118.49a7.23,7.23,0,0,0-.61-.63,269.83,269.83,0,0,0-24.73-22.55c3.74-2.89,7.12-7.55,10.23-14.06A76.35,76.35,0,0,0,947,948.12c-24.7-77.78-105.51-337.76-108.37-417.34,0-.11,0-.22,0-.32-1.76-22.2,10.88-45.7,33-61.33,27.62-19.53,62.92-22.27,97.08-7.53,15.39,19.42,93.79,201.47,140.55,314,.07.14.13.29.2.43,2.64,5.34,64.88,131.29,98.13,176.39,14.89,20.2,33.74,28.37,50.43,21.85,20-7.8,51-43.16,34.61-192.3l0-.21c-.41-3-40.89-296.55-27.69-442.94,8.31-21.45,26.68-37.68,50.56-44.63,32.81-9.54,70.2-1.13,102.84,23.07,18.34,41.85,74.86,459.7,95.35,619.19a7.48,7.48,0,0,0,4,5.72l357.95,183c-7.86,39.24-53.18,274.53-43.44,434.95,5.43,89.5-23.91,201.34-49.48,279.41-25.82,78.82-53.09,140-57.12,148.9-22.91,24.26-43.63,58.45-28.69,174.35C1704.3,2220.42,1679.88,2274.63,1634.66,2300.87Z" transform="translate(-632.76 -275.33)"/><path class="cls-7" d="M2071.61,1226.18c-95.79-40.41-206.6,4.66-247,100.45s4.67,206.6,100.46,247c88.3,37.25,189.36,1.87,236.27-78.92l0-.09q1.07-1.84,2.1-3.72l.37-.68c.68-1.26,1.36-2.53,2-3.81,0,0,0-.08.07-.13.67-1.3,1.33-2.63,2-4,.16-.32.31-.64.46-1,.49-1,1-2,1.43-3.06.17-.38.35-.75.51-1.13.6-1.32,1.18-2.65,1.75-4h0c.59-1.4,1.15-2.79,1.7-4.19.23-.58.45-1.17.68-1.76.3-.79.6-1.57.89-2.37s.57-1.56.84-2.34c.2-.57.4-1.14.59-1.7.32-.94.64-1.89.94-2.83.12-.36.24-.72.35-1.08.36-1.12.7-2.24,1-3.37a2,2,0,0,1,.08-.26,188.9,188.9,0,0,0,7.69-54.92c0-1,0-1.95,0-2.93,0-.2,0-.41,0-.62C2184.77,1323.2,2141.81,1255.78,2071.61,1226.18Z" transform="translate(-632.76 -275.33)"/><circle class="cls-2" cx="2046.43" cy="1305.23" r="58.99" transform="translate(-440.84 2595.88) rotate(-72.71)"/><circle class="cls-2" cx="1959.8" cy="1510.64" r="58.99" transform="translate(-940.87 2224.98) rotate(-61.2)"/><circle class="cls-2" cx="1900.41" cy="1364.62" r="58.99" transform="translate(-861.9 120.39) rotate(-11.22)"/><circle class="cls-2" cx="2105.82" cy="1451.25" r="58.99" transform="translate(-874.83 162) rotate(-11.22)"/><circle class="cls-8" cx="1680.12" cy="1560.37" r="129.78" transform="translate(-836.73 2591.86) rotate(-77.63)"/><circle class="cls-8" cx="1211.93" cy="1362.91" r="129.78" transform="translate(-1241.52 980.82) rotate(-45)"/><path class="cls-9" d="M1919.24,1587.46c-103.41-43.62-152.06-163.24-108.45-266.65s163.24-152.07,266.65-108.46A202.73,202.73,0,0,1,2182,1312.46c6.25-48.1-2.13-79-10.58-96.75-7.3-15.32-15.83-23.57-19.55-26.68l-201.83-85.13,0-.11c-.47-.14-.95-.29-1.42-.47L1656.31,989.83l-19.38-8.18-285-130-203.33-85.75c-4.79-.49-16.66-.85-32.75,4.63-18.61,6.33-46.58,21.9-76.66,60a202.67,202.67,0,0,1,144.68,5c103.42,43.62,152.07,163.24,108.45,266.65s-163.23,152.07-266.65,108.46c-75.4-31.8-121.67-104-124.31-180.87-65.41,98.72-189.76,291.27-223.66,377.86-23.7,60.54-33.39,112.93-28.79,155.71,4.42,41.18,22,71.19,52.18,89.2,31.27,18.65,74,22.06,117.35,9.36,34.53-10.13,85.92-35.15,134.62-96.78,37.71-47.73,100.54-66.31,186.74-55.22,68.37,8.8,150.66,35.47,251.56,81.51,103.4,40.12,179.93,80.44,234,123.26,68.11,54,98.66,111.94,90.81,172.27-10.15,77.89,7.8,132.15,24.65,163.95,21.13,39.88,53.42,68.13,88.6,77.51,34,9.06,67.73.68,100.31-24.9,33.84-26.57,64.59-70.07,91.4-129.29,38.35-84.72,89.45-308.17,114.5-423.91C2078.65,1602,1994.64,1619.26,1919.24,1587.46ZM1740,1167.94l52.22,22a37.86,37.86,0,1,1-29.42,69.77l-52.22-22a37.86,37.86,0,0,1,29.42-69.78Zm-341-143.83,52.22,22a37.86,37.86,0,1,1-29.42,69.77l-52.22-22a37.86,37.86,0,0,1,29.42-69.78Zm-243.28,472.2c-73.55-31-108.16-116.1-77.14-189.66s116.11-108.16,189.66-77.13,108.16,116.1,77.14,189.66S1229.23,1527.34,1155.67,1496.31Zm360.06-199.07-.31-.14-.31-.13a65,65,0,1,1,50.49-119.72l.34.14.29.12a65,65,0,0,1-50.5,119.73Zm108.13,396.53c-73.56-31-108.16-116.1-77.14-189.66S1662.82,1396,1736.38,1427s108.16,116.11,77.14,189.66S1697.41,1724.79,1623.86,1693.77Z" transform="translate(-632.76 -275.33)"/><circle class="cls-6" cx="2041.66" cy="1297.2" r="58.99" transform="translate(-952.03 1548.28) rotate(-45)"/><circle class="cls-6" cx="1955.02" cy="1502.61" r="58.99" transform="translate(-788.19 -47.85) rotate(-6.41)"/><circle class="cls-6" cx="1895.63" cy="1356.59" r="58.99" transform="translate(-812.67 20.17) rotate(-8.51)"/><circle class="cls-6" cx="2101.05" cy="1443.22" r="58.99" transform="translate(-823.23 51.53) rotate(-8.51)"/><circle class="cls-6" cx="1680.12" cy="1560.37" r="89.84" transform="translate(-1244.02 1369.71) rotate(-45)"/><circle class="cls-2" cx="1680.12" cy="1560.37" r="62.65" transform="translate(-694.36 -206.26) rotate(-2.31)"/><path class="cls-8" d="M1639.42,1558.37a48.67,48.67,0,0,1,89.29-1,48.68,48.68,0,1,0-93,22.84A48.53,48.53,0,0,1,1639.42,1558.37Z" transform="translate(-632.76 -275.33)"/><path class="cls-6" d="M1309.69,1362.72l-28-11.8a21.46,21.46,0,0,1-11.44-28.12l11.8-28a21.49,21.49,0,0,0-11.44-28.13l-30.78-13a21.46,21.46,0,0,0-28.12,11.44l-11.8,28a21.47,21.47,0,0,1-28.13,11.44l-28-11.8a21.47,21.47,0,0,0-28.13,11.44l-13,30.77a21.49,21.49,0,0,0,11.44,28.13l28,11.8a21.47,21.47,0,0,1,11.44,28.12l-11.8,28a21.46,21.46,0,0,0,11.44,28.12l30.77,13a21.47,21.47,0,0,0,28.13-11.44l11.8-28a21.46,21.46,0,0,1,28.12-11.44l28,11.8a21.47,21.47,0,0,0,28.12-11.44l13-30.77A21.47,21.47,0,0,0,1309.69,1362.72Z" transform="translate(-632.76 -275.33)"/><path class="cls-7" d="M1375.36,1080.06l52.22,22a22.86,22.86,0,1,0,17.76-42.13l-52.22-22a22.86,22.86,0,1,0-17.76,42.12Z" transform="translate(-632.76 -275.33)"/><path class="cls-7" d="M928.91,954.94c-.41,1.06-.8,2.12-1.19,3.18-.13.33-.25.66-.37,1-.5,1.39-1,2.79-1.46,4.18a.56.56,0,0,1,0,.12c-.46,1.38-.9,2.75-1.32,4.13-.08.24-.15.48-.22.72-.42,1.37-.82,2.74-1.21,4.11l0,.1c-25.12,90,20.08,187,108.38,224.28,95.8,40.41,206.6-4.66,247-100.45s-4.66-206.6-100.46-247c-70.2-29.61-148.47-13.31-201.18,35.22l-.44.4c-.72.67-1.43,1.35-2.14,2a188.4,188.4,0,0,0-34,43.82,1.71,1.71,0,0,1-.13.23c-.57,1-1.13,2.07-1.69,3.1-.17.34-.35.67-.53,1-.46.88-.92,1.76-1.37,2.65l-.8,1.61c-.37.74-.74,1.49-1.1,2.24s-.71,1.53-1.07,2.29c-.26.57-.53,1.14-.79,1.72-.61,1.37-1.22,2.74-1.81,4.13s-1.11,2.7-1.64,4ZM1151,913.41a119,119,0,1,1-155.86,63.38A119.09,119.09,0,0,1,1151,913.41Z" transform="translate(-632.76 -275.33)"/><path class="cls-7" d="M1716.39,1223.89l52.22,22a22.86,22.86,0,1,0,17.77-42.13l-52.22-22a22.86,22.86,0,1,0-17.77,42.12Z" transform="translate(-632.76 -275.33)"/><path class="cls-8" d="M1366.06,1056.67a22.88,22.88,0,0,1,30-12.18l52.22,22a22.79,22.79,0,0,1,10.32,8.68,22.82,22.82,0,0,0-13.21-15.23l-52.22-22a22.85,22.85,0,0,0-28.08,33.45A22.71,22.71,0,0,1,1366.06,1056.67Z" transform="translate(-632.76 -275.33)"/><path class="cls-8" d="M1707.09,1200.5a22.89,22.89,0,0,1,30-12.18l52.22,22a22.74,22.74,0,0,1,10.32,8.68,22.83,22.83,0,0,0-13.2-15.23l-52.22-22a22.85,22.85,0,0,0-28.09,33.45A22.71,22.71,0,0,1,1707.09,1200.5Z" transform="translate(-632.76 -275.33)"/><circle class="cls-6" cx="1104.73" cy="1023.03" r="103.97" transform="translate(-880.58 1409.23) rotate(-68.86)"/><circle class="cls-2" cx="1104.73" cy="1023.03" r="81.34" transform="translate(-918.59 1325.07) rotate(-65.35)"/><path class="cls-8" d="M1046.57,1018a68.7,68.7,0,0,1,126-1.35,68.72,68.72,0,1,0-131.31,32.24A68.44,68.44,0,0,1,1046.57,1018Z" transform="translate(-632.76 -275.33)"/><path class="cls-2" d="M2142.18,1166.05l4.66-11.06a5.23,5.23,0,0,0-2.78-6.84l-153.33-64.67a14.63,14.63,0,0,0-19.15,7.79l-1.21,2.86a15.8,15.8,0,0,1-.84,1.7l171.89,72.5A17.42,17.42,0,0,1,2142.18,1166.05Z" transform="translate(-632.76 -275.33)"/><path class="cls-2" d="M1343.23,829.63l1.2-2.86a14.63,14.63,0,0,0-7.79-19.15L1183.31,743a5.23,5.23,0,0,0-6.84,2.79l-4.66,11a17.3,17.3,0,0,1-1.11,2.14l171.9,72.49A15.25,15.25,0,0,1,1343.23,829.63Z" transform="translate(-632.76 -275.33)"/><path class="cls-2" d="M1560.4,1191.33l-.29-.12-.34-.14a50,50,0,0,0-38.84,92.08l.32.13.31.14a50,50,0,0,0,38.84-92.09Z" transform="translate(-632.76 -275.33)"/><path class="cls-6" d="M1369.53,1093.89l52.22,22a37.86,37.86,0,1,0,29.42-69.77l-52.22-22a37.86,37.86,0,0,0-29.42,69.78Zm23.59-56,52.22,22a22.86,22.86,0,1,1-17.76,42.13l-52.22-22a22.86,22.86,0,1,1,17.76-42.12Z" transform="translate(-632.76 -275.33)"/><path class="cls-6" d="M1058.5,1132.64a119,119,0,1,0-63.39-155.85A119.09,119.09,0,0,0,1058.5,1132.64Zm86.64-205.41a104,104,0,1,1-136.2,55.39A104.08,104.08,0,0,1,1145.14,927.23Z" transform="translate(-632.76 -275.33)"/><path class="cls-6" d="M1566.23,1177.51l-.29-.12-.34-.14A65,65,0,1,0,1515.11,1297l.31.13.31.14a65,65,0,0,0,50.5-119.73Zm-44.67,105.91-.31-.14-.32-.13a50,50,0,0,1,38.84-92.08l.34.14.29.12a50,50,0,0,1-38.84,92.09Z" transform="translate(-632.76 -275.33)"/><path class="cls-6" d="M1736.38,1427c-73.56-31-158.64,3.59-189.66,77.14s3.58,158.64,77.14,189.66,158.63-3.58,189.66-77.14S1809.93,1458,1736.38,1427Zm-106.69,253a129.78,129.78,0,0,1,100.86-239.16c65.93,27.81,97,104.08,69.14,170A129.91,129.91,0,0,1,1629.69,1680Z" transform="translate(-632.76 -275.33)"/><path class="cls-6" d="M1710.56,1237.72l52.22,22A37.86,37.86,0,1,0,1792.2,1190l-52.22-22a37.86,37.86,0,0,0-29.42,69.78Zm23.6-56,52.22,22a22.86,22.86,0,1,1-17.77,42.13l-52.22-22a22.86,22.86,0,1,1,17.77-42.12Z" transform="translate(-632.76 -275.33)"/><path class="cls-6" d="M1268.19,1229.52c-73.55-31-158.63,3.58-189.66,77.13s3.59,158.64,77.14,189.66,158.64-3.58,189.66-77.13S1341.75,1260.54,1268.19,1229.52Zm-106.69,253a129.92,129.92,0,0,1-69.14-170c27.8-65.93,104.07-97,170-69.14a129.77,129.77,0,1,1-100.86,239.15Z" transform="translate(-632.76 -275.33)"/><path class="cls-8" d="M2039.29,1327.94a26.44,26.44,0,0,1-3.3-.76,33.28,33.28,0,0,1-4.19-1.44q-4.15-1.76-5.64-4t.41-6.8l5.15-12.21c-.56-2.87-1.15-6-1.75-9.48s-1.16-6.94-1.65-10.49-.88-7-1.17-10.35a81.25,81.25,0,0,1-.34-9,13.44,13.44,0,0,1,4.46-1.64,9.61,9.61,0,0,1,5.59.77,11.27,11.27,0,0,1,5.14,3.86c1.07,1.59,1.7,4,1.91,7.2l1.14,18.27.54.23c1.63-1.51,3.09-2.91,4.37-4.18s2.55-2.54,3.8-3.83l3.92-4c1.36-1.38,2.92-3,4.68-4.79a18,18,0,0,1,4.15.26,18.45,18.45,0,0,1,4,1.15,9.48,9.48,0,0,1,4.68,3.94,6.43,6.43,0,0,1,.1,6,10.79,10.79,0,0,1-1.56,2.43,31.6,31.6,0,0,1-4,3.78q-2.94,2.43-8.31,6.45T2047,1309.58Z" transform="translate(-632.76 -275.33)"/><path class="cls-8" d="M2089.37,1472.33c-1-.44-2.22-1-3.58-1.62s-2.74-1.37-4.14-2.17-2.77-1.65-4.1-2.53a23,23,0,0,1-3.5-2.81q-4.18-4-2.19-8.7l17.81-42.23a4.3,4.3,0,0,1,2.28-2.5,8,8,0,0,1,3.55-.47,37.78,37.78,0,0,1,8.35,1.66,95.58,95.58,0,0,1,9.71,3.51q11.57,4.88,16.17,11.4t1.17,14.66a11.73,11.73,0,0,1-5.31,6,14.59,14.59,0,0,1-8.14,1.63,17,17,0,0,1,5.61,7.8,13.08,13.08,0,0,1-.52,9.68q-3.78,9-12.23,10.45T2089.37,1472.33Zm8.8-37.3,6.61,2.79c2.59,1.09,4.67,1.4,6.26.93a5.59,5.59,0,0,0,3.55-3.5,4.92,4.92,0,0,0-.39-4.75c-.95-1.53-2.78-2.88-5.5-4q-1.35-.57-3.15-1.23a25.61,25.61,0,0,0-2.88-.89Zm-9.3,22.07a18.17,18.17,0,0,0,3,1.87c1.29.65,2.54,1.23,3.75,1.73a12.12,12.12,0,0,0,6.64,1,5.54,5.54,0,0,0,4.36-3.65,5,5,0,0,0-.2-5.09q-1.46-2.1-5.52-3.82l-7.42-3.12Z" transform="translate(-632.76 -275.33)"/><path class="cls-8" d="M1879.45,1325.26a13.16,13.16,0,0,1,2.33-2,11.19,11.19,0,0,1,3-1.45,11.72,11.72,0,0,1,3.57-.52,10.13,10.13,0,0,1,3.9.85,8.92,8.92,0,0,1,4.06,3.25,16.65,16.65,0,0,1,2.18,6.2l2.52,13.73,16.88-11a10.48,10.48,0,0,1,2.32.18,11.31,11.31,0,0,1,2.71.77,10.56,10.56,0,0,1,5.67,4.73,6.71,6.71,0,0,1,.3,5.88,8.77,8.77,0,0,1-3.22,4c-1.44,1-3.3,2.06-5.6,3.29l-14.11,7.47,5.85,27.28a9.86,9.86,0,0,1-5.35,4,10.81,10.81,0,0,1-7.29-.79,8.38,8.38,0,0,1-4-3.22,16.65,16.65,0,0,1-2-6.11l-2.44-14.66-18.64,12.37c-.51-.14-1-.29-1.41-.44s-.87-.31-1.29-.48q-5.15-2.18-6.72-5.29a7,7,0,0,1-.26-6.18,9.62,9.62,0,0,1,3-4.09,42.29,42.29,0,0,1,5.14-3.21l14.64-8.21Z" transform="translate(-632.76 -275.33)"/><path class="cls-8" d="M1954.82,1472.17a20.6,20.6,0,0,1,5.38.25,26.7,26.7,0,0,1,6.63,1.83,24.74,24.74,0,0,1,7.45,4.69,7.57,7.57,0,0,1,2.74,6q-.36,5.38-1.09,12.43t-1.64,14.49c-.6,5-1.21,9.86-1.82,14.67s-1.17,9.08-1.66,12.78a8.06,8.06,0,0,1-4.11.66,16.81,16.81,0,0,1-5.48-1.41,17,17,0,0,1-3.51-1.9,7.14,7.14,0,0,1-2-2.12,5.74,5.74,0,0,1-.73-2.54,18.17,18.17,0,0,1,.1-3.16l1-6.92-16.37-6.9c-1.25,1.6-2.52,3.27-3.81,5s-2.57,3.39-3.81,5a26.9,26.9,0,0,1-3-.36,16.8,16.8,0,0,1-3.52-1.11c-3.07-1.3-5.13-2.79-6.16-4.46a5.55,5.55,0,0,1-.37-5.32,10.17,10.17,0,0,1,1.43-2.38c.6-.75,1.29-1.63,2.08-2.64,1.1-1.45,2.54-3.23,4.31-5.32s3.7-4.35,5.79-6.77,4.26-4.9,6.54-7.42l6.42-7.14q3-3.36,5.44-6T1954.82,1472.17Zm5.93,16.24c-1.92,2.18-4,4.6-6.42,7.26s-4.64,5.41-6.83,8.24l11.21,4.73q.8-5.42,1.45-10.62c.43-3.48.81-6.6,1.13-9.38Z" transform="translate(-632.76 -275.33)"/><path class="cls-10" d="M805.21,1387.21c32.81-77.8,82.68-161.75,137-241.77a205,205,0,0,1-40.85-115.73c-65.41,98.72-189.76,291.27-223.66,377.86-23.7,60.54-33.39,112.93-28.79,155.71,4.42,41.18,22,71.19,52.18,89.2,31.27,18.65,74,22.06,117.35,9.36,22.64-6.65,52.54-19.69,84.17-45.27C811.3,1608.46,733.79,1556.57,805.21,1387.21Z" transform="translate(-632.76 -275.33)"/><path class="cls-10" d="M1115.81,770.5c-18.61,6.33-46.58,21.9-76.66,60a202.71,202.71,0,0,1,143.89,4.7c14.36-16.57,26.33-30.08,35.15-39.92l-69.63-29.36C1143.77,765.38,1131.9,765,1115.81,770.5Z" transform="translate(-632.76 -275.33)"/><path class="cls-10" d="M1946.52,1868.55c32.81-77.79,58.12-172.1,77.54-266.82a204.94,204.94,0,0,0,111.39-51.53c-25,115.75-76.14,339.19-114.49,423.91-26.81,59.23-57.57,102.73-91.41,129.3-32.58,25.57-66.32,34-100.3,24.9-35.18-9.38-67.48-37.63-88.61-77.51-11-20.86-22.57-51.37-26.33-91.87C1783.82,2018.62,1875.09,2037.91,1946.52,1868.55Z" transform="translate(-632.76 -275.33)"/><path class="cls-10" d="M2171.37,1215.68c8.45,17.75,16.82,48.65,10.58,96.74a202.7,202.7,0,0,0-103.81-99.76c1.85-21.85,3.17-39.85,4.06-53l69.63,29.36C2155.52,1192.08,2164.06,1200.33,2171.37,1215.68Z" transform="translate(-632.76 -275.33)"/><path class="cls-6" d="M2171.64,1506.71l.1-.17q2.57-4.17,4.92-8.47c.15-.26.29-.52.43-.79.65-1.19,1.29-2.39,1.91-3.6l.37-.71q1.08-2.09,2.1-4.2c.13-.28.26-.56.4-.84.55-1.15,1.09-2.3,1.61-3.46l.54-1.17q1-2.13,1.87-4.29h0q.95-2.24,1.83-4.49c.24-.61.47-1.23.71-1.84.33-.87.66-1.73,1-2.6s.59-1.63.88-2.45c.22-.63.44-1.25.65-1.88.34-1,.67-2,1-3l.38-1.19c.38-1.19.75-2.38,1.11-3.58l0-.12a201.6,201.6,0,0,0,8.41-55.68c0-.49,0-1,0-1.46,0-.78,0-1.56,0-2.35,0-1,0-1.92,0-2.88l0-1.26a203.36,203.36,0,0,0-9-54.36c1-5.85,1.91-11.21,2.68-16,16.26-100.78-25.16-139.61-35.28-147.44l.08-.17-.68-.29c-.79-.59-1.31-.93-1.49-1l-.54-.35-.6-.25a1.9,1.9,0,0,1-1-2.48l4.67-11.06a20.24,20.24,0,0,0-10.78-26.49l-153.33-64.67a29.64,29.64,0,0,0-38.8,15.78l-1.21,2.86a1.88,1.88,0,0,1-2.43,1L1662,976l-19-8-285-130a1.9,1.9,0,0,1-1-2.47l1.21-2.86a29.66,29.66,0,0,0-15.79-38.8l-153.33-64.67a20.24,20.24,0,0,0-26.49,10.78L1158,751a1.9,1.9,0,0,1-2.49,1l-.59-.25-.63-.14c-2.63-.61-65.16-13.9-132.76,77.2-2.86,3.85-6.07,8.25-9.56,13.08a202.85,202.85,0,0,0-45.19,31.53c-.31.28-.62.56-.92.85-.71.66-1.41,1.32-2.1,2l-1.68,1.62-1,1a201.69,201.69,0,0,0-34,44.89l0,.1q-.91,1.64-1.8,3.3l-.58,1.09c-.48.93-1,1.85-1.43,2.78-.3.59-.6,1.19-.89,1.78-.38.78-.77,1.56-1.15,2.35s-.78,1.66-1.16,2.5c-.28.6-.56,1.19-.83,1.8q-1,2.21-2,4.45t-1.76,4.34l-.47,1.19c-.46,1.19-.91,2.39-1.35,3.59-.11.28-.22.57-.32.85q-.79,2.22-1.55,4.45l-.24.74c-.43,1.3-.85,2.6-1.26,3.91-.08.28-.17.55-.25.83q-1.44,4.71-2.64,9.47a.83.83,0,0,0,0,.15,201.31,201.31,0,0,0-5,27.65c-60.27,90.36-201.69,306.65-238.63,401-24.58,62.8-34.59,117.57-29.73,162.77,4.88,45.47,25.42,80.22,59.4,100.49a125.12,125.12,0,0,0,15.34,7.74c32.72,13.79,73.25,15.05,113.92,3.12,52.52-15.41,101.68-50.63,142.17-101.87,34.22-43.31,92.45-60,173.06-49.64,66.9,8.61,147.83,34.89,247.44,80.37l.2.09.2.08c102.08,39.59,177.4,79.2,230.26,121.1,63.7,50.49,92.38,103.84,85.25,158.58-8.43,64.76.65,124.55,26.27,172.91,23.08,43.56,58.8,74.54,98,85,38.23,10.19,77.45.65,113.43-27.59,35.76-28.07,68-73.46,95.81-134.91,41.78-92.31,98-344.54,120.61-450.78A201.63,201.63,0,0,0,2171.64,1506.71Zm15.17-111.9c0,.21,0,.42,0,.62,0,1,0,2,0,2.93a188.9,188.9,0,0,1-7.69,54.92,2,2,0,0,0-.08.26c-.34,1.13-.68,2.25-1,3.37-.11.36-.23.72-.35,1.08-.3.94-.62,1.89-.94,2.83-.19.56-.39,1.13-.59,1.7q-.41,1.17-.84,2.34c-.29.8-.59,1.58-.89,2.37-.23.59-.45,1.18-.68,1.76-.55,1.4-1.11,2.79-1.7,4.19h0c-.57,1.34-1.15,2.67-1.75,4-.16.38-.34.75-.51,1.13-.47,1-.94,2-1.43,3.06-.15.32-.3.64-.46,1-.64,1.33-1.3,2.66-2,4,0,0,0,.09-.07.13-.66,1.28-1.34,2.55-2,3.81l-.37.68q-1,1.88-2.1,3.72l0,.09c-46.91,80.79-148,116.17-236.27,78.92-95.79-40.4-140.86-151.2-100.46-247s151.21-140.86,247-100.45C2141.81,1255.78,2184.77,1323.2,2186.81,1394.81Zm-216.44-300.68,1.21-2.86a14.63,14.63,0,0,1,19.15-7.79l153.33,64.67a5.23,5.23,0,0,1,2.78,6.84l-4.66,11.06a17.42,17.42,0,0,0-.76,2.28l-171.89-72.5A15.8,15.8,0,0,0,1970.37,1094.13ZM1171.81,756.79l4.66-11a5.23,5.23,0,0,1,6.84-2.79l153.33,64.67a14.63,14.63,0,0,1,7.79,19.15l-1.2,2.86a15.25,15.25,0,0,0-.63,1.79l-171.9-72.49A17.3,17.3,0,0,0,1171.81,756.79Zm-239,188.83c.26-.58.53-1.15.79-1.72.36-.76.71-1.53,1.07-2.29s.73-1.5,1.1-2.24l.8-1.61c.45-.89.91-1.77,1.37-2.65.18-.33.36-.66.53-1,.56-1,1.12-2.07,1.69-3.1a1.71,1.71,0,0,0,.13-.23,188.4,188.4,0,0,1,34-43.82c.71-.69,1.42-1.37,2.14-2l.44-.4c52.71-48.53,131-64.83,201.18-35.22,95.8,40.4,140.87,151.2,100.46,247s-151.2,140.86-247,100.45c-88.3-37.24-133.5-134.3-108.38-224.28l0-.1c.39-1.37.79-2.74,1.21-4.11.07-.24.14-.48.22-.72.42-1.38.86-2.75,1.32-4.13a.56.56,0,0,0,0-.12c.47-1.39,1-2.79,1.46-4.18.12-.33.24-.66.37-1,.39-1.06.78-2.12,1.19-3.18l.45-1.14c.53-1.35,1.08-2.7,1.64-4S932.2,947,932.81,945.62ZM2021,1974.15c-26.81,59.22-57.56,102.72-91.4,129.29-32.58,25.58-66.33,34-100.31,24.9-35.18-9.38-67.47-37.63-88.6-77.51-16.85-31.8-34.8-86.06-24.65-163.95,7.85-60.33-22.7-118.29-90.81-172.27-54-42.82-130.55-83.14-234-123.26-100.9-46-183.19-72.71-251.56-81.51-86.2-11.09-149,7.49-186.74,55.22-48.7,61.63-100.09,86.65-134.62,96.78-43.31,12.7-86.08,9.29-117.35-9.36-30.2-18-47.76-48-52.18-89.2-4.6-42.78,5.09-95.17,28.79-155.71,33.9-86.59,158.25-279.14,223.66-377.86,2.64,76.86,48.91,149.07,124.31,180.87,103.42,43.61,223-5,266.65-108.46s-5-223-108.45-266.65a202.67,202.67,0,0,0-144.68-5c30.08-38.05,58-53.62,76.66-60,16.09-5.48,28-5.12,32.75-4.63l203.33,85.75,285,130,19.38,8.18,292.38,113.49c.47.18,1,.33,1.42.47l0,.11L2151.9,1189c3.72,3.11,12.25,11.36,19.55,26.68,8.45,17.75,16.83,48.65,10.58,96.75a202.73,202.73,0,0,0-104.59-100.11c-103.41-43.61-223,5-266.65,108.46s5,223,108.45,266.65c75.4,31.8,159.41,14.54,216.3-37.22C2110.49,1666,2059.39,1889.43,2021,1974.15Z" transform="translate(-632.76 -275.33)"/><ellipse class="cls-8" cx="1548.73" cy="1213.1" rx="18.22" ry="31.01" transform="translate(-803.64 1893.36) rotate(-67.13)"/><path class="cls-10" d="M1518.39,945.17c-34,80.61-14,170.65,43.72,230.73,1.17.42,2.33.86,3.49,1.35l.34.14.29.12a64.59,64.59,0,0,1,31.48,28.3,220.66,220.66,0,0,0,126,37.46l-13.18-5.55a37.86,37.86,0,0,1,29.42-69.78l52.22,22a37.89,37.89,0,0,1,23,31.48,210.71,210.71,0,0,0,102.45-107.89q4.08-9.69,7.12-19.53l-268.45-104.2-19.38-8.18-111.76-51Q1521.54,937.74,1518.39,945.17Z" transform="translate(-632.76 -275.33)"/><path class="cls-10" d="M1843,1643.19c14.22-30.89,33-51.66,54.24-66.62-88.1-50.32-126.85-160-86.46-255.76a204,204,0,0,1,16.64-31.48c-29,21.62-50.37,53.82-60.46,85.49-8.9,27.92-14,46.32-19.75,57.27,66,34.48,95.75,114.7,66.3,184.54-31,73.56-116.11,108.16-189.66,77.14s-108.16-116.1-77.14-189.66c.16-.39.34-.76.5-1.15-32.11,24-37,77.85-67.55,64.19-38-17-176.57-61.28-147-109.07,12.91-20.87,17.56-38.75,18.34-54.95a146.15,146.15,0,0,1-5.68,16c-31,73.55-116.1,108.16-189.66,77.13a144.74,144.74,0,0,1-86-106.72c-11.42,16.41-24.66,34.45-40.44,53.5-31.84,38.42-45.9,72-51.66,97.65,38.21-29.46,92.57-39.85,162.17-30.9,68.37,8.8,150.66,35.47,251.56,81.51,103.4,40.12,179.93,80.44,234,123.26,53.47,42.38,83.79,87.22,90.55,133.73,1.25-31.06-7.14-70.39,18.18-87.31C1772,1735.64,1809.26,1716.52,1843,1643.19Z" transform="translate(-632.76 -275.33)"/><path class="cls-10" d="M1514.36,1321.94a72.43,72.43,0,0,0,86.51-109.64,64.93,64.93,0,0,1-85.14,84.94l-.31-.14-.31-.13a65.06,65.06,0,0,1-38.69-71.37c-.22.49-.45,1-.65,1.45A72.43,72.43,0,0,0,1514.36,1321.94Z" transform="translate(-632.76 -275.33)"/><path class="cls-3" d="M1033.29,1684.14a364.6,364.6,0,0,0,21-43.86c2.83-7.15,5.74-14.5,8.41-21.89v-16.11a53.33,53.33,0,0,1,.79-5.67,7.42,7.42,0,0,1-1.83-4.85c-.38-97-27.36-160.26-49.91-196.2-16.87-26.89-33.84-42.94-42.79-50.34-2.41,4.31-4.87,8.61-7.44,12.93-31.58,53.07-64.63,88.29-66,89.75a7.5,7.5,0,1,1-10.91-10.29c.33-.35,33.48-35.7,64.22-87.43,28.08-47.27,59.88-118.35,51.87-188.49-4.36-38.18-20.06-72.61-46.83-102.91l-51.52,82.47a64.4,64.4,0,0,1-79.48,25.28c-1-.4-1.91-.84-2.87-1.3-45.48,74.71-84.73,146.59-72.25,185.36,23.52,73.06,47.06,221.64,46.65,294.42-.19,32.19,22.29,69.76,65,108.65,25.21,23,56.21,45.23,90.27,65.06C973.32,1771.4,1005.66,1729.16,1033.29,1684.14Z" transform="translate(-632.76 -275.33)"/><path class="cls-5" d="M960.05,1058s7.14,92.45-37.36,198-101.47,128.24-91.89,196.3S842.89,1507,899.4,1431s99-11.58,108.63,72.8-6,131.79-29,168.52,32.91,44,65.6-15.64,34.48-63.91,27.1-105.94-25.93-124.54-57.91-166.27-48.59-50-48.59-50,23.93-50.79,26-55.58,14.33-42.91,17.19-86.9S1001.66,1084.37,960.05,1058Z" transform="translate(-632.76 -275.33)"/><path class="cls-11" d="M922.47,1019.9s27.48,12.22,26.12,27.34-45,84.28-56.58,97-21.45,16.63-38.7,16.6-39.54-7.51-41-8.47,79.49-120.78,82.92-125.19,7-12.93,11-14.09S922.47,1019.9,922.47,1019.9Z" transform="translate(-632.76 -275.33)"/><path class="cls-6" d="M1004.13,1847.08c-55.2-25.51-106.61-58.68-144.75-93.42-42.7-38.89-65.18-76.46-65-108.65.41-72.78-23.13-221.36-46.65-294.42-12.48-38.77,26.77-110.65,72.25-185.36,1,.46,1.91.9,2.87,1.3a64.4,64.4,0,0,0,79.48-25.28l51.52-82.47c26.77,30.3,42.47,64.73,46.83,102.91,8,70.14-23.79,141.22-51.87,188.49-30.74,51.73-63.89,87.08-64.22,87.43a7.5,7.5,0,1,0,10.91,10.29c1.39-1.46,34.44-36.68,66-89.75,2.57-4.32,5-8.62,7.44-12.93,8.95,7.4,25.92,23.45,42.79,50.34,22.55,35.94,49.53,99.16,49.91,196.2a7.5,7.5,0,1,0,15,0c-.39-101.17-28.91-167.32-52.75-205-19.28-30.47-38.5-47.72-47.72-55a407.34,407.34,0,0,0,27.38-65.53c11.73-37.48,15.77-73.2,12-106.18-5.07-44.52-24.24-84.2-57.16-118.5a5.93,5.93,0,0,0-.61-.62,271.27,271.27,0,0,0-24.73-22.55l-14.64-11.12q-4.62-3.3-9.46-6.52a7.51,7.51,0,0,0-10.84,2.86c-18.26,36.09-43.5,76.9-67.92,116.38-58.35,94.31-113.46,183.4-96.78,235.22,23.15,71.92,46.33,218.14,45.92,289.73-.2,36.56,24,78,69.9,119.83,39.24,35.74,92,69.81,148.56,95.94q2,.94,4,2,4.11-5.9,8.48-12.5C1008.33,1849.09,1006.24,1848.06,1004.13,1847.08ZM843,1127.86c22.9-37,46.53-75.22,64.65-109.89a276.67,276.67,0,0,1,35.57,29.54l-53.59,85.79a49.36,49.36,0,0,1-61.74,19C832.89,1144.19,838,1136,843,1127.86Z" transform="translate(-632.76 -275.33)"/><path class="cls-11" d="M1887.61,1042.8c-3.32-5.31-10-13.25-22.83-20.94-21.69-13-48.56-1.72-51.66,3.09-19.19,41.56-23,66.12-23.66,75.67,21.45,22.44,45.83,23.75,52.17,22.24,17.9-19.54,38.23-56.83,46.26-72.19h0A8,8,0,0,0,1887.61,1042.8Z" transform="translate(-632.76 -275.33)"/><path class="cls-3" d="M1683.56,856.29a220.78,220.78,0,0,0-20.36-9.84c-36.85-15.55-74.13-19.3-97.32-8.94-13.73,6.13-22.51,17-26.11,32.46-11.39,48.78-17.29,168.52,20.67,224.23,11.17,16.39,25.47,26,42.51,28.45,44.58,6.52,70.38-2,84.17-10.27,14.56-8.74,19-18.77,19.14-19.19l.07-.17.05-.1c30.2-65.55,41.59-119.65,33.85-160.78C1733.91,898.54,1715.37,873.73,1683.56,856.29Zm10.1,241.85-.93,1c-11.88,13.25-55.56,25.53-102.76,5.62q-3.1-1.3-6.21-2.8l-2.66-1.28-1.13-2.86c-4.91-12.53-16-49.88-13.16-125.94.4-8.44,7.86-19.39,20-29.36,9.55-7.87,35.34-25.66,68.45-20.84,25.12,3.65,41.17,12.07,50.21,18.49a30,30,0,0,1,12.42,26.95c-2.3,26.36-9.21,91.76-23.68,129.68Z" transform="translate(-632.76 -275.33)"/><path class="cls-11" d="M1696.73,952.44c-7.69-5.47-21.51-12.66-43.67-15.88-27.18-3.95-48.75,11-56.75,17.58-10.62,8.75-14.41,16.31-14.51,18.42-2.63,69.31,6.86,104.9,11.16,117.18,44.27,20,80.06,6.69,87.76.23,13.41-36.39,20-98.74,22.18-124.11A14.94,14.94,0,0,0,1696.73,952.44Z" transform="translate(-632.76 -275.33)"/><path class="cls-3" d="M1891.13,951.06c-13.76-12.38-29-22.08-43.55-28.23-15.16-6.39-29.66-9-41.19-6.77-11.17,2.14-19.19,8.39-24.53,19.13-17.3,34.86-43.13,124.25-24.42,173,5.46,14.22,14.08,23.48,26.31,28.33,60.67,24,81.11-2.21,82-3.34l.16-.24v0c34.52-44.18,52.77-83,54.24-115.3C1921.3,991.46,1911.82,969.68,1891.13,951.06Zm10,106.55h0c-8.5,16.26-30.37,56.31-49.85,76.83l-1,1-1.26.6c-7.34,3.5-22.95,3.31-39.9-3.84a92.52,92.52,0,0,1-33-23.82l-2-2.2.06-3c.2-9.52,3-36.65,25.24-84.72,4.1-8.67,17.82-13.4,21.93-14.65,8.46-2.57,30.37-7.22,51,5.11,15.43,9.22,23.66,19.15,27.85,25.86A23,23,0,0,1,1901.18,1057.61Z" transform="translate(-632.76 -275.33)"/><path class="cls-6" d="M1901.17,939.91c-24.2-21.77-64.27-44.94-97.6-38.58-15.64,3-27.79,12.39-35.14,27.19a254.24,254.24,0,0,0-10.91,26.6,155.52,155.52,0,0,0-2.55-25.76c-7.1-37.76-28.7-66.77-64.2-86.22-36.1-19.79-92.07-36.72-131-19.33-18,8-30,22.82-34.6,42.75-5.13,21.94-10.44,64.53-8.55,112.33,1.49,37.6,8.15,89.6,31.43,123.76,9.66,14.18,21.38,24.19,35,29.94a71.9,71.9,0,0,0,17.73,4.9c94.73,13.85,117.46-34.19,119.26-38.41q9.06-19.66,15.93-38.07c-.48,19,1.55,37.16,7.46,52.53,6.76,17.62,18,29.85,33.5,36.37l1.29.53c70.32,27.81,97-5,99.52-8.36,36.42-46.64,55.72-88.28,57.34-123.77C1936.48,987.8,1925.07,961.42,1901.17,939.91Zm-194.79,153-.05.1-.07.17c-.18.42-4.58,10.45-19.14,19.19-13.79,8.28-39.59,16.79-84.17,10.27-17-2.49-31.34-12.06-42.51-28.45-38-55.71-32.06-175.45-20.67-224.23,3.6-15.41,12.38-26.33,26.11-32.46,23.19-10.36,60.47-6.61,97.32,8.94a220.78,220.78,0,0,1,20.36,9.84c31.81,17.44,50.35,42.25,56.67,75.85C1748,973.27,1736.58,1027.37,1706.38,1092.92Zm159.48,40v0l-.16.24c-.84,1.13-21.28,27.34-82,3.34-12.23-4.85-20.85-14.11-26.31-28.33-18.71-48.72,7.12-138.11,24.42-173,5.34-10.74,13.36-17,24.53-19.13,11.53-2.2,26,.38,41.19,6.77,14.59,6.15,29.79,15.85,43.55,28.23,20.69,18.62,30.17,40.4,29,66.57C1918.63,1050,1900.38,1088.75,1865.86,1132.93Z" transform="translate(-632.76 -275.33)"/><path class="cls-6" d="M1705.42,940.21c-9-6.42-25.09-14.84-50.21-18.49-33.11-4.82-58.9,13-68.45,20.84-12.09,10-19.55,20.92-20,29.36-2.88,76.06,8.25,113.41,13.16,125.94l1.13,2.86,2.66,1.28q3.1,1.5,6.21,2.8c47.2,19.91,90.88,7.63,102.76-5.62l.93-1,.5-1.3c14.47-37.92,21.38-103.32,23.68-129.68A30,30,0,0,0,1705.42,940.21ZM1593,1089.74c-4.3-12.28-13.79-47.87-11.16-117.18.1-2.11,3.89-9.67,14.51-18.42,8-6.6,29.57-21.53,56.75-17.58,22.16,3.22,36,10.41,43.67,15.88a14.94,14.94,0,0,1,6.17,13.42c-2.22,25.37-8.77,87.72-22.18,124.11C1673,1096.43,1637.23,1109.77,1593,1089.74Z" transform="translate(-632.76 -275.33)"/><path class="cls-6" d="M1900.33,1034.85c-4.19-6.71-12.42-16.64-27.85-25.86-20.62-12.33-42.53-7.68-51-5.11-4.11,1.25-17.83,6-21.93,14.65-22.19,48.07-25,75.2-25.24,84.72l-.06,3,2,2.2a92.52,92.52,0,0,0,33,23.82c17,7.15,32.56,7.34,39.9,3.84l1.26-.6,1-1c19.48-20.52,41.35-60.57,49.85-76.83h0A23,23,0,0,0,1900.33,1034.85Zm-12.44,15.82h0c-8,15.36-28.36,52.65-46.26,72.19-6.34,1.51-30.72.2-52.17-22.24.69-9.55,4.47-34.11,23.66-75.67,3.1-4.81,30-16.06,51.66-3.09,12.86,7.69,19.51,15.63,22.83,20.94A8,8,0,0,1,1887.89,1050.67Z" transform="translate(-632.76 -275.33)"/><path class="cls-5" d="M1728.75,899.48c-12.39-15-33.8-32.31-68.57-37.14-64.92-9-92,37.44-93.54,65.53-1.37,25.93,27.51-16.06,56.4-4.16a79.34,79.34,0,0,1,32.17-2c25.12,3.65,41.17,12.07,50.21,18.49a30,30,0,0,1,12.42,26.95c-2.3,26.36-9.21,91.76-23.68,129.68l-.5,1.3-.93,1c-11.88,13.25-55.56,25.53-102.76,5.62q-3.1-1.3-6.21-2.8l-2.66-1.28-1.13-2.86a128.42,128.42,0,0,1-4.43-13.89c-4.6-4.43-10-14-14.71-29.58-9.11-30.37-18.29-4.93-9.18,24.18a112.58,112.58,0,0,0,8.79,15.63c11.17,16.39,25.47,26,42.51,28.45,44.58,6.52,70.38-2,84.17-10.27,14.56-8.74,19-18.77,19.14-19.19l.07-.17.05-.1c30.2-65.55,41.59-119.65,33.85-160.78A108.49,108.49,0,0,0,1728.75,899.48Z" transform="translate(-632.76 -275.33)"/><path class="cls-5" d="M1891.13,951.06a170.4,170.4,0,0,0-21.58-16.52c-6.75-.27-11.77,3.83-8.71,19,7.15,35.5-.16,30.53,10.2,40.55s-6,3.11-24.19-2.91-45.77,9.18-52.54,29.15-21.88,52.44-24,66.86c-1.49,10.28-9.08,17.74-14.87,15.15.59,2,1.24,3.93,2,5.8,5.46,14.22,14.08,23.48,26.31,28.33,60.67,24,81.11-2.21,82-3.34l.16-.24v0c34.52-44.18,52.77-83,54.24-115.3C1921.3,991.46,1911.82,969.68,1891.13,951.06Zm10,106.55h0c-8.5,16.26-30.37,56.31-49.85,76.83l-1,1-1.26.6c-7.34,3.5-22.95,3.31-39.9-3.84a92.52,92.52,0,0,1-33-23.82l-2-2.2.06-3c.2-9.52,3-36.65,25.24-84.72,4.1-8.67,17.82-13.4,21.93-14.65,8.46-2.57,30.37-7.22,51,5.11,15.43,9.22,23.66,19.15,27.85,25.86A23,23,0,0,1,1901.18,1057.61Z" transform="translate(-632.76 -275.33)"/><path class="cls-4" d="M966.81,1787.44c-18.52-5.63-40.26-12.19-71.58-29.93-58.51-33.15,18.06-78.53,39.9-152.64s-38.81-92.15-63-69.4-35.79,65.87-49.67,28.47-17.53-66.7-24.8-113.07-29.87-122.28-18.41-149.46,40.16-97.45,57.46-100.51,41.09-4.79,65.95-38.08c21-28.09,32.89-61.67,28.74-68.1l-29.07,46.53a64.4,64.4,0,0,1-79.48,25.28c-1-.4-1.91-.84-2.87-1.3-45.48,74.71-84.73,146.59-72.25,185.36,23.52,73.06,47.06,221.64,46.65,294.42-.19,32.19,22.29,69.76,65,108.65,25.21,23,56.21,45.23,90.27,65.06C955,1808.06,960.75,1797.67,966.81,1787.44Z" transform="translate(-632.76 -275.33)"/></svg>